<svg width="20" height="23" viewBox="0 0 20 23" xmlns="http://www.w3.org/2000/svg"><title>avatar</title><g fill="#262626" opacity=".702"><path d="M9.912 12.39h.156c1.426-.023 2.58-.514 3.43-1.452 1.874-2.067 1.563-5.61 1.529-5.948-.122-2.538-1.348-3.752-2.36-4.319C11.912.248 11.032.02 10.049 0h-.084c-.54 0-1.6.086-2.617.652-1.022.567-2.268 1.781-2.39 4.338-.033.339-.345 3.881 1.529 5.948.846.938 2 1.429 3.425 1.452zM6.258 5.11c0-.015.005-.029.005-.039.16-3.414 2.637-3.78 3.698-3.78h.059c1.314.028 3.548.552 3.699 3.78 0 .015 0 .029.005.039.004.033.345 3.271-1.202 4.976-.613.676-1.431 1.01-2.506 1.019h-.049c-1.07-.01-1.893-.343-2.501-1.02C5.922 8.39 6.253 5.139 6.258 5.11z"/><path d="M19.99 18.267v-.015c0-.038-.005-.076-.005-.119-.029-.943-.092-3.147-2.204-3.852l-.049-.014c-2.194-.548-4.02-1.786-4.039-1.8a.665.665 0 0 0-.914.157c-.21.29-.137.69.16.895.083.057 2.02 1.376 4.443 1.986 1.134.395 1.26 1.58 1.294 2.666 0 .043 0 .081.005.12.005.428-.024 1.09-.102 1.47-.788.439-3.878 1.953-8.579 1.953-4.681 0-7.79-1.519-8.584-1.957-.078-.38-.112-1.043-.102-1.471 0-.038.005-.076.005-.12.034-1.085.16-2.27 1.294-2.666 2.423-.61 4.36-1.933 4.443-1.986a.633.633 0 0 0 .16-.895.665.665 0 0 0-.914-.157c-.02.014-1.835 1.252-4.04 1.8a.623.623 0 0 0-.048.014C.102 14.986.04 17.19.01 18.13c0 .042 0 .08-.005.119v.014c-.005.248-.01 1.519.248 2.157a.614.614 0 0 0 .253.3c.146.095 3.645 2.276 9.499 2.276 5.854 0 9.353-2.185 9.499-2.276a.64.64 0 0 0 .253-.3c.243-.633.238-1.905.233-2.152z"/></g></svg>