<svg width="36" height="41" viewBox="0 0 36 41" xmlns="http://www.w3.org/2000/svg"><title>broadcast</title><path d="M16.298 39.47V20.684a3.06 3.06 0 0 1-1.351-2.543 3.027 3.027 0 0 1 3.021-3.036 3.027 3.027 0 0 1 3.022 3.036 3.041 3.041 0 0 1-1.769 2.765v18.562c0 .815-.663 1.481-1.474 1.481-.81 0-1.45-.666-1.45-1.48zm9.016-15.33a1.44 1.44 0 0 0 2.014-.494 10.74 10.74 0 0 0 1.548-6.071C28.63 11.6 23.594 6.936 17.624 7.158c-2.85.124-5.503 1.358-7.468 3.505a10.753 10.753 0 0 0-2.85 7.8 10.942 10.942 0 0 0 1.327 4.814 1.458 1.458 0 0 0 2.014.567c.713-.394.958-1.308.565-2.024a8.232 8.232 0 0 1-.982-3.505 8.037 8.037 0 0 1 2.063-5.677c1.4-1.555 3.39-2.419 5.479-2.518 4.323-.173 8.008 3.21 8.18 7.578a7.774 7.774 0 0 1-1.13 4.419 1.484 1.484 0 0 0 .492 2.024zm4.323 5.703a1.5 1.5 0 0 0 2.089-.173 18.148 18.148 0 0 0 4.225-11.65C35.951 8.071 27.918 0 18.017 0 8.117 0 .084 8.072.084 18.02c0 4.516 1.67 8.811 4.692 12.143.295.321.688.494 1.08.494.345 0 .713-.123.984-.395.59-.543.638-1.48.098-2.098A15.085 15.085 0 0 1 3.032 18.02c0-8.294 6.731-15.057 14.985-15.057 8.255 0 14.986 6.763 14.986 15.057 0 3.555-1.253 7.01-3.537 9.726a1.472 1.472 0 0 0 .171 2.098z" fill="#262626"/></svg>