<svg width="25" height="23" viewBox="0 0 25 23" xmlns="http://www.w3.org/2000/svg"><title>calendar</title><g fill="#262626" opacity=".696"><path d="M21.05 1.59h-3.12V.824c0-.458-.311-.764-.78-.764-.467 0-.779.306-.779.764v.764H8.576V.825c0-.458-.312-.764-.78-.764s-.78.306-.78.764v.764H3.899C1.715 1.59 0 3.27 0 5.41v13.747c0 2.139 1.715 3.82 3.898 3.82H21.05c2.183 0 3.898-1.681 3.898-3.82V5.408c0-2.139-1.715-3.819-3.898-3.819zM1.56 5.407c0-1.222 1.09-2.291 2.338-2.291h3.119v.764c0 .458.311.763.78.763.467 0 .779-.305.779-.763v-.764h7.796v.764c0 .458.312.763.78.763s.78-.305.78-.763v-.764h3.118c1.247 0 2.339 1.069 2.339 2.291V7.7H1.559V5.41zm21.829 13.748c0 1.222-1.092 2.292-2.34 2.292H3.9c-1.248 0-2.34-1.07-2.34-2.292V9.227h21.83v9.93z"/><path d="M5.457 19.156c.468 0 .78-.152 1.092-.458.312-.305.468-.764.468-1.07 0-.305-.156-.763-.468-1.069a1.529 1.529 0 0 0-2.183 0c-.312.306-.468.611-.468 1.07 0 .305.156.764.468 1.07.312.305.624.457 1.091.457zm0-4.582c.468 0 .78-.153 1.092-.459.312-.305.468-.764.468-1.069 0-.305-.156-.764-.468-1.07a1.529 1.529 0 0 0-2.183 0c-.312.306-.468.612-.468 1.07 0 .458.156.764.468 1.07.312.305.624.458 1.091.458zm4.678 4.582c.468 0 .78-.152 1.092-.458.311-.305.467-.764.467-1.07 0-.305-.156-.763-.467-1.069a1.529 1.529 0 0 0-2.183 0c-.312.306-.468.764-.468 1.07 0 .305.156.764.468 1.07.311.305.623.457 1.091.457zm0-4.582c.468 0 .78-.153 1.092-.459.311-.305.467-.764.467-1.069 0-.305-.156-.764-.467-1.07a1.529 1.529 0 0 0-2.183 0c-.312.306-.468.765-.468 1.07 0 .306.156.764.468 1.07.311.305.623.458 1.091.458zm4.678 4.582c.468 0 .78-.152 1.091-.458.312-.305.468-.61.468-1.07 0-.458-.156-.763-.468-1.069a1.529 1.529 0 0 0-2.183 0 1.633 1.633 0 0 0-.467 1.07c0 .305.155.764.467 1.07.312.305.624.457 1.092.457zm0-4.582c.468 0 .78-.153 1.091-.459.312-.305.468-.61.468-1.069 0-.305-.156-.764-.468-1.07a1.529 1.529 0 0 0-2.183 0 1.635 1.635 0 0 0-.467 1.07c0 .306.155.764.467 1.07.312.305.624.458 1.092.458zm4.677 4.582c.468 0 .78-.152 1.092-.458.312-.305.468-.764.468-1.07 0-.305-.156-.763-.468-1.069a1.529 1.529 0 0 0-2.183 0c-.312.306-.468.611-.468 1.07 0 .305.156.764.468 1.07.312.305.624.457 1.092.457zm0-4.582c.468 0 .78-.153 1.092-.459.312-.305.468-.61.468-1.069 0-.305-.156-.764-.468-1.07a1.529 1.529 0 0 0-2.183 0c-.312.306-.468.765-.468 1.07 0 .306.156.764.468 1.07.312.305.624.458 1.092.458z"/></g></svg>