<svg width="22" height="40" viewBox="0 0 22 40" xmlns="http://www.w3.org/2000/svg"><title>electr</title><g fill="#333"><path d="M14.23 27.047a.661.661 0 0 0-.937.092l-8.21 10.086 3.71-9.906a.68.68 0 0 0-.074-.622.664.664 0 0 0-.549-.291H4.187l4.597-8.869a.681.681 0 0 0-.02-.662.665.665 0 0 0-.57-.325H1.54L9.259 1.348h4.943a.67.67 0 0 0 .666-.674.67.67 0 0 0-.666-.674H9.06a1 1 0 0 0-.895.553L.11 16.415c-.159.313-.145.694.037.996.181.3.51.487.858.487h6.087l-4.335 8.364c-.163.314-.152.697.03 1 .18.304.51.492.86.492h3.559L3.14 38.61a1.02 1.02 0 0 0 .425 1.249.997.997 0 0 0 1.287-.229l9.469-11.634a.68.68 0 0 0-.091-.95z"/><path d="M21.135 9.322a1.004 1.004 0 0 0-.883-.529H16.05l4.185-7.262a1.03 1.03 0 0 0 .004-1.02A1.006 1.006 0 0 0 19.366 0H16.83a.67.67 0 0 0-.666.674.67.67 0 0 0 .666.674h1.968l-4.484 7.78a.681.681 0 0 0-.002.675c.12.21.34.339.578.339h4.767l-6.552 10.383a.68.68 0 0 0-.023.687c.117.216.341.35.584.35h4.546l-3.195 3.926a.68.68 0 0 0 .09.95.659.659 0 0 0 .938-.093l3.632-4.462c.248-.302.302-.728.137-1.083a1.01 1.01 0 0 0-.91-.586h-4.022l6.219-9.854c.197-.314.21-.71.034-1.038z"/></g></svg>