<svg width="30" height="18" viewBox="0 0 30 18" xmlns="http://www.w3.org/2000/svg"><title>email</title><path d="M29.98 1.537A1.527 1.527 0 0 0 28.442.026h-.002L1.535.062c-.41 0-.797.159-1.086.445-.29.286-.45.666-.449 1.07l.02 14.886c.001.405.162.784.452 1.07.29.285.676.441 1.085.441h.002l26.906-.036A1.527 1.527 0 0 0 30 16.423l-.02-14.886zm-3.225.004L15 9.586 3.225 1.573l23.53-.032zm-6.784 9.563l6.971 5.323-23.904.032 7.013-5.355a.749.749 0 0 0 .137-1.061.777.777 0 0 0-1.079-.135l-7.553 5.768-.018-13.412 13.028 8.865a.776.776 0 0 0 .875-.002l13.003-8.9.02 13.447-7.55-5.766a.776.776 0 0 0-1.079.135.749.749 0 0 0 .136 1.061z" fill="#262626" opacity=".707"/></svg>