<svg width="26" height="40" viewBox="0 0 26 40" xmlns="http://www.w3.org/2000/svg"><title>gas</title><g fill="#333"><path d="M24.918 19.79c-.751-3.36-1.4-6.262-.115-8.872a.613.613 0 0 0-.07-.652.652.652 0 0 0-.629-.234c-.154.028-3.605.708-5.813 5.455a17.74 17.74 0 0 1-2.29-3.6C14.266 8.26 13.967 4.532 15.11.804c.07-.23 0-.478-.181-.64a.656.656 0 0 0-.67-.122c-.078.03-1.905.742-3.64 2.581-1.597 1.692-3.417 4.698-3.02 9.41.21 2.504.187 4.258.088 5.454a10.743 10.743 0 0 0-2.096-3.816C4.324 12.18 3.053 11.468 3 11.439a.658.658 0 0 0-.691.034.619.619 0 0 0-.26.624c.782 4.114.007 6.45-.814 8.925C.63 22.845.005 24.73.005 27.349.005 34.325 5.835 40 13 40c7.165 0 12.995-5.675 12.995-12.651 0-2.743-.572-5.302-1.077-7.56zm-7.125 17.958a5.843 5.843 0 0 0 1.34-3.719c0-4.263-1.343-7.773-2.47-9.967-1.223-2.382-2.441-3.75-2.493-3.806a.655.655 0 0 0-.907-.06.615.615 0 0 0-.06.884c.045.052 4.643 5.257 4.643 12.95 0 2.6-2.174 4.717-4.846 4.717-2.774 0-4.846-2.49-4.846-4.718 0-1.104.246-1.853.488-2.44a.621.621 0 0 0-.359-.814.65.65 0 0 0-.836.349 7.307 7.307 0 0 0-.58 2.905c0 1.33.538 2.685 1.487 3.781-4.151-1.754-7.062-5.782-7.062-10.461 0-2.42.567-4.131 1.168-5.942.732-2.208 1.487-4.481 1.089-8 1.334 1.17 3.318 3.537 3.318 7.261 0 .25.152.476.387.575a.657.657 0 0 0 .696-.118c.265-.241 1.552-1.818.932-9.193-.286-3.398.605-6.23 2.647-8.419.69-.74 1.403-1.278 1.98-1.648-.938 4.401.162 8.118 1.325 10.55 1.389 2.906 3.127 4.616 3.2 4.688.155.15.378.214.592.169a.638.638 0 0 0 .466-.392c1.18-3.063 2.879-4.48 4.022-5.12-.726 2.605-.105 5.382.547 8.296.515 2.303 1.047 4.685 1.047 7.293 0 4.623-2.842 8.613-6.915 10.399z"/><path d="M13.694 24.733a.644.644 0 0 0-.769.474 6.77 6.77 0 0 1-.638 1.736c-1.326-1.507-2.564-1.557-2.718-1.557a.635.635 0 0 0-.643.627c0 .927-.112 1.719-.353 2.49-.104.33.088.68.428.781a.642.642 0 0 0 .803-.417c.2-.64.325-1.306.378-2.022l.039.02c.38.201.959.624 1.558 1.5a.652.652 0 0 0 .99.095c.095-.094.948-.97 1.412-2.979a.626.626 0 0 0-.487-.748z"/></g></svg>