<svg width="38" height="40" viewBox="0 0 38 40" xmlns="http://www.w3.org/2000/svg"><title>gaselectr</title><g fill="#333"><path d="M11.57 21.637a.54.54 0 0 0-.76.074l-6.645 8.07 3.003-7.926a.54.54 0 0 0-.505-.73H3.44l3.72-7.095a.54.54 0 0 0-.477-.79H1.296L7.544 1.079h4.002a.54.54 0 0 0 0-1.079H7.383a.811.811 0 0 0-.724.442l-6.52 12.69a.82.82 0 0 0 .029.797.82.82 0 0 0 .695.39h4.928l-3.51 6.69a.819.819 0 0 0 .024.801.819.819 0 0 0 .697.393h2.88l-3.29 8.685A.81.81 0 0 0 3.35 32a.813.813 0 0 0 .628-.296l7.665-9.307a.54.54 0 0 0-.074-.76z"/><path d="M16.85 7.458a.814.814 0 0 0-.714-.423h-3.402l3.388-5.81A.816.816 0 0 0 15.42 0h-2.053a.54.54 0 0 0 0 1.079h1.593l-3.63 6.223a.54.54 0 0 0 .466.811h3.86L10.35 16.42a.539.539 0 0 0 .455.83h3.68l-2.587 3.14a.54.54 0 0 0 .833.686l2.94-3.57a.818.818 0 0 0 .11-.866.818.818 0 0 0-.737-.47H11.79l5.034-7.882c.16-.25.17-.569.028-.83zm20.276 15.868c-.607-2.772-1.13-5.166-.093-7.319a.514.514 0 0 0-.056-.538.52.52 0 0 0-.508-.193c-.125.023-2.912.584-4.695 4.5a14.676 14.676 0 0 1-1.85-2.97c-1.4-2.99-1.642-6.066-.719-9.142a.515.515 0 0 0-.146-.528.522.522 0 0 0-.542-.1c-.062.024-1.538.612-2.94 2.13-1.289 1.395-2.759 3.875-2.439 7.762.17 2.066.152 3.513.071 4.5a8.917 8.917 0 0 0-1.693-3.149c-1.024-1.23-2.05-1.818-2.093-1.842a.522.522 0 0 0-.558.028.515.515 0 0 0-.21.515c.632 3.394.006 5.322-.657 7.363-.489 1.504-.994 3.06-.994 5.22C17.004 35.318 21.713 40 27.5 40c5.787 0 10.496-4.682 10.496-10.437 0-2.263-.462-4.374-.87-6.237zm-5.755 14.816a4.883 4.883 0 0 0 1.083-3.068c0-3.517-1.085-6.413-1.995-8.223-.989-1.965-1.972-3.093-2.014-3.14a.522.522 0 0 0-.733-.049.515.515 0 0 0-.049.73c.038.042 3.751 4.336 3.751 10.682 0 2.146-1.756 3.893-3.914 3.893-2.24 0-3.914-2.055-3.914-3.893 0-.91.199-1.529.394-2.013a.516.516 0 0 0-.29-.672.52.52 0 0 0-.675.288 6.14 6.14 0 0 0-.469 2.397c0 1.097.435 2.215 1.201 3.12-3.353-1.447-5.704-4.771-5.704-8.631 0-1.997.459-3.408.944-4.903.591-1.82 1.2-3.696.88-6.6 1.077.966 2.68 2.918 2.68 5.991 0 .206.122.392.312.474.19.082.411.044.562-.097.214-.199 1.254-1.5.753-7.584-.231-2.803.488-5.14 2.137-6.946a8.419 8.419 0 0 1 1.6-1.36c-.757 3.632.131 6.698 1.07 8.704 1.122 2.398 2.526 3.809 2.585 3.868a.522.522 0 0 0 .854-.184c.953-2.527 2.326-3.696 3.25-4.223-.587 2.148-.086 4.44.44 6.843.417 1.9.847 3.865.847 6.017 0 3.814-2.296 7.105-5.586 8.579z"/><path d="M28.06 27.405a.52.52 0 0 0-.62.39 5.66 5.66 0 0 1-.516 1.433c-1.071-1.244-2.07-1.284-2.195-1.284a.518.518 0 0 0-.52.516c0 .766-.09 1.419-.285 2.055a.516.516 0 0 0 .497.667.52.52 0 0 0 .497-.367 7.548 7.548 0 0 0 .306-1.668l.031.016c.307.166.775.516 1.259 1.237a.52.52 0 0 0 .8.08c.077-.078.766-.8 1.14-2.458a.517.517 0 0 0-.394-.617z"/></g></svg>