<svg width="18" height="18" viewBox="0 0 18 18" xmlns="http://www.w3.org/2000/svg"><title>minus</title><path d="M17.01.99A3.25 3.25 0 0 0 14.625 0H3.375C2.445 0 1.65.33.99.99A3.25 3.25 0 0 0 0 3.375v11.25c0 .93.33 1.725.99 2.385.66.66 1.455.99 2.385.99h11.25c.93 0 1.725-.33 2.385-.99.66-.66.99-1.455.99-2.385V3.375c0-.93-.33-1.725-.99-2.385zM15 9.75a.72.72 0 0 1-.222.527.722.722 0 0 1-.528.223H3.75a.721.721 0 0 1-.527-.223A.72.72 0 0 1 3 9.75v-1.5a.72.72 0 0 1 .223-.527.72.72 0 0 1 .527-.223h10.5c.203 0 .379.074.528.223A.721.721 0 0 1 15 8.25v1.5z" fill="#262626" opacity=".704"/></svg>