<svg width="21" height="22" viewBox="0 0 21 22" xmlns="http://www.w3.org/2000/svg"><title>no</title><path d="M.003 18.723a3.227 3.227 0 0 0 1.055 2.252c.601.548 1.379.85 2.191.85.911 0 1.786-.385 2.401-1.058l4.597-5.035 4.598 5.035a3.26 3.26 0 0 0 2.4 1.059 3.24 3.24 0 0 0 2.191-.85 3.228 3.228 0 0 0 1.055-2.252 3.228 3.228 0 0 0-.846-2.34l-4.996-5.471 4.996-5.472a3.228 3.228 0 0 0 .846-2.339A3.227 3.227 0 0 0 19.436.849 3.242 3.242 0 0 0 17.246 0a3.26 3.26 0 0 0-2.401 1.058l-4.598 5.035L5.65 1.058A3.26 3.26 0 0 0 3.249 0c-.813 0-1.59.302-2.19.85A3.228 3.228 0 0 0 .002 3.101a3.234 3.234 0 0 0 .848 2.34l4.995 5.472-4.995 5.47a3.23 3.23 0 0 0-.847 2.34zm1.954-1.328l5.12-5.607a1.306 1.306 0 0 0 .001-1.75l-5.12-5.61A1.739 1.739 0 0 1 1.5 3.17a1.74 1.74 0 0 1 .57-1.213c.685-.625 1.847-.571 2.471.113l4.815 5.273c.461.504 1.32.504 1.782 0l4.814-5.272c.625-.686 1.787-.739 2.472-.113.345.315.547.746.569 1.213a1.74 1.74 0 0 1-.456 1.26l-5.12 5.607a1.306 1.306 0 0 0-.001 1.75l5.12 5.608c.315.345.477.792.456 1.26a1.738 1.738 0 0 1-.569 1.212c-.684.626-1.845.573-2.472-.112l-4.814-5.273a1.212 1.212 0 0 0-.89-.396c-.336 0-.66.144-.892.397l-4.814 5.271c-.626.686-1.785.74-2.472.113a1.74 1.74 0 0 1-.569-1.213 1.74 1.74 0 0 1 .456-1.259z" fill="#333"/></svg>