<svg width="24" height="24" viewBox="0 0 24 24" xmlns="http://www.w3.org/2000/svg"><title>phone</title><path d="M4.833 15.94a25.507 25.507 0 0 0 8.486 6.634c1.241.586 2.9 1.283 4.75 1.402.114.005.224.01.338.01 1.241 0 2.238-.428 3.05-1.308a.11.11 0 0 0 .02-.025c.29-.348.618-.661.962-.994.234-.224.473-.458.703-.697 1.061-1.104 1.061-2.506-.01-3.575l-2.995-2.99c-.509-.526-1.117-.805-1.755-.805-.637 0-1.25.279-1.774.8l-1.784 1.781a9.406 9.406 0 0 0-.493-.258c-.2-.1-.384-.194-.548-.299-1.625-1.03-3.1-2.372-4.51-4.098-.713-.9-1.191-1.656-1.525-2.426.468-.423.907-.866 1.33-1.298a33.3 33.3 0 0 1 .459-.463c.538-.537.827-1.159.827-1.79 0-.632-.284-1.253-.827-1.79L8.052 2.269c-.175-.175-.339-.344-.508-.518a27.307 27.307 0 0 0-1.012-1C6.019.25 5.416-.013 4.778-.013c-.633 0-1.241.263-1.774.77L1.14 2.617A3.818 3.818 0 0 0-.001 5.064C-.096 6.252.123 7.515.69 9.042c.872 2.362 2.188 4.555 4.142 6.898zM1.215 5.168c.06-.662.314-1.214.792-1.691l1.854-1.85c.289-.278.608-.423.917-.423.304 0 .613.145.897.433.334.308.648.632.986.975l.519.527L8.665 4.62c.309.308.468.621.468.93 0 .308-.16.621-.468.93-.155.154-.31.313-.464.467-.463.468-.897.91-1.375 1.333l-.025.025c-.414.413-.349.805-.25 1.104l.016.04c.384.92.917 1.795 1.749 2.84 1.495 1.84 3.07 3.267 4.804 4.366.214.139.443.248.658.358.2.1.383.194.548.298l.055.03c.164.084.324.124.483.124.399 0 .658-.253.743-.338l1.863-1.86c.29-.288.603-.442.912-.442.38 0 .688.233.882.442l3.005 2.994c.598.597.593 1.243-.015 1.875-.209.224-.428.437-.662.661-.35.338-.713.686-1.042 1.08-.573.616-1.256.904-2.138.904-.084 0-.174-.005-.259-.01-1.634-.104-3.154-.74-4.296-1.283a24.231 24.231 0 0 1-8.078-6.315c-1.858-2.233-3.11-4.312-3.936-6.54-.514-1.368-.708-2.467-.628-3.466z" fill="#262626" opacity=".7"/></svg>