<svg width="19" height="19" viewBox="0 0 19 19" xmlns="http://www.w3.org/2000/svg"><title>plus</title><path d="M17.51 1.49A3.25 3.25 0 0 0 15.125.5H3.875c-.93 0-1.725.33-2.385.99A3.25 3.25 0 0 0 .5 3.875v11.25c0 .93.33 1.725.99 2.385.66.66 1.455.99 2.385.99h11.25c.93 0 1.725-.33 2.385-.99.66-.66.99-1.456.99-2.385V3.875c0-.93-.33-1.725-.99-2.385zm-2.01 8.76a.72.72 0 0 1-.222.527.722.722 0 0 1-.528.223H11v3.75a.721.721 0 0 1-.223.527.72.72 0 0 1-.527.223h-1.5a.72.72 0 0 1-.527-.223A.72.72 0 0 1 8 14.75V11H4.25a.721.721 0 0 1-.527-.223.72.72 0 0 1-.223-.527v-1.5a.72.72 0 0 1 .223-.528A.72.72 0 0 1 4.25 8H8V4.25a.72.72 0 0 1 .223-.527.72.72 0 0 1 .527-.223h1.5a.72.72 0 0 1 .527.223.721.721 0 0 1 .223.527V8h3.75a.72.72 0 0 1 .528.223.721.721 0 0 1 .222.527v1.5z" fill="#262626" opacity=".715"/></svg>