<svg width="40" height="40" viewBox="0 0 40 40" xmlns="http://www.w3.org/2000/svg"><title>Shape</title><path d="M37.76 2.198C36.294.733 34.53 0 32.465 0H7.492C5.43 0 3.664.733 2.198 2.198.733 3.664 0 5.428 0 7.492v24.974c0 2.063.733 3.828 2.198 5.294 1.466 1.465 3.23 2.198 5.294 2.198h24.974c2.063 0 3.828-.733 5.293-2.198 1.466-1.466 2.198-3.23 2.198-5.294V7.492c0-2.064-.732-3.829-2.198-5.294zm-4.462 19.446c0 .45-.165.841-.494 1.17a1.6 1.6 0 0 1-1.17.495h-8.325v8.324a1.6 1.6 0 0 1-.495 1.17c-.329.33-.72.495-1.17.495h-3.33c-.45 0-.84-.165-1.17-.494a1.6 1.6 0 0 1-.495-1.171v-8.324H8.325c-.451 0-.841-.165-1.17-.495a1.6 1.6 0 0 1-.495-1.17v-3.33a1.6 1.6 0 0 1 .494-1.17 1.6 1.6 0 0 1 1.17-.495h8.325V8.324c0-.45.165-.84.495-1.17a1.6 1.6 0 0 1 1.17-.495h3.33c.45 0 .841.165 1.17.495.33.33.495.72.495 1.17v8.325h8.324c.451 0 .841.165 1.171.494.33.33.494.72.494 1.17v3.33z" fill="#3179C5"/></svg>