<svg width="44" height="40" viewBox="0 0 44 40" xmlns="http://www.w3.org/2000/svg"><title>smartphone</title><g fill="#262626"><path d="M13.119 39.964h17.717a3.193 3.193 0 0 0 3.185-3.19V3.262A3.193 3.193 0 0 0 30.836.073H13.119a3.193 3.193 0 0 0-3.185 3.19v33.513a3.192 3.192 0 0 0 3.185 3.189zm18.689-9.306h-19.67V7.432h19.67v23.226zm-.981 7.099H13.119a.984.984 0 0 1-.98-.982v-3.91h19.669v3.91c0 .54-.441.982-.981.982zM13.119 2.279h17.717c.54 0 .98.442.98.982v1.964H12.139V3.261c0-.54.441-.982.981-.982z"/><path d="M24.169 34.153h-4.391a1.107 1.107 0 0 0 0 2.216h4.39c.612 0 1.107-.495 1.107-1.108 0-.612-.504-1.108-1.106-1.108zm16.007 0h-3.167a1.107 1.107 0 0 0 0 2.216h3.167a3.777 3.777 0 0 0 3.77-3.774V7.45a3.777 3.777 0 0 0-3.77-3.774h-3.167a1.107 1.107 0 1 0 0 2.216h3.167c.864 0 1.566.703 1.566 1.567v25.145c0 .846-.702 1.55-1.566 1.55zM3.77 36.36h3.167a1.107 1.107 0 1 0 0-2.216H3.77a1.568 1.568 0 0 1-1.566-1.567V7.45c0-.864.702-1.567 1.566-1.567h3.167a1.107 1.107 0 0 0 0-2.216H3.77A3.777 3.777 0 0 0 0 7.44v25.145a3.777 3.777 0 0 0 3.77 3.774z"/></g></svg>