<svg width="28" height="21" viewBox="0 0 28 21" xmlns="http://www.w3.org/2000/svg"><title>yes</title><path d="M23.94.377c-.565 0-1.108.126-1.614.374-6.16 2.998-10.346 8.718-12.53 12.374l-4.033-2.816a3.663 3.663 0 0 0-2.11-.663 3.677 3.677 0 0 0-2.982 1.519 3.57 3.57 0 0 0 .869 5.018l4.975 3.475c1.094.764 2.35 1.167 3.633 1.167.45 0 .903-.05 1.347-.15 1.737-.389 3.256-1.54 4.167-3.157 1.59-2.826 4.993-7.924 9.898-10.312a3.589 3.589 0 0 0 1.842-2.072 3.528 3.528 0 0 0-.184-2.75A3.638 3.638 0 0 0 23.939.377zm1.732 4.178a1.8 1.8 0 0 1-.921 1.037c-5.35 2.604-8.992 8.042-10.687 11.052-.66 1.17-1.743 2-2.975 2.276-1.203.27-2.463.007-3.519-.731l-4.975-3.474a1.786 1.786 0 0 1-.435-2.51 1.84 1.84 0 0 1 2.546-.428l5.685 3.97.494-.877c1.9-3.37 6.018-9.474 12.248-12.506.254-.124.525-.187.805-.187.702 0 1.33.385 1.64 1.004.218.431.25.92.094 1.374z" fill="#333"/></svg>