<?xml version="1.0" encoding="UTF-8"?>
<svg width="20px" height="23px" viewBox="0 0 20 23" version="1.1" xmlns="http://www.w3.org/2000/svg" xmlns:xlink="http://www.w3.org/1999/xlink">
    <!-- Generator: Sketch 44.1 (41455) - http://www.bohemiancoding.com/sketch -->
    <title>avatar</title>
    <desc>Created with Sketch.</desc>
    <defs></defs>
    <g id="Page-1" stroke="none" stroke-width="1" fill="none" fill-rule="evenodd" opacity="0.702445652">
        <g id="4.-Apply" transform="translate(-681.000000, -2949.000000)" fill-rule="nonzero" fill="#262626">
            <g id="body" transform="translate(0.000000, 85.000000)">
                <g id="details" transform="translate(0.000000, 2667.000000)">
                    <g id="question-copy-8" transform="translate(233.000000, 125.000000)">
                        <g id="input-copy" transform="translate(195.000000, 53.000000)">
                            <g id="avatar" transform="translate(253.000000, 19.000000)">
                                <path d="M9.91240876,12.3904762 L9.99026764,12.3904762 L10.0194647,12.3904762 L10.0681265,12.3904762 C11.4939173,12.3666667 12.6472019,11.8761905 13.4987835,10.9380952 C15.3722628,8.87142857 15.0608273,5.32857143 15.026764,4.99047619 C14.9051095,2.45238095 13.6788321,1.23809524 12.6666667,0.671428571 C11.9124088,0.247619048 11.0316302,0.019047619 10.0486618,0 L10.0145985,0 L9.99513382,0 L9.96593674,0 C9.42579075,0 8.3649635,0.0857142857 7.34793187,0.652380952 C6.32603406,1.21904762 5.08029197,2.43333333 4.95863747,4.99047619 C4.92457421,5.32857143 4.61313869,8.87142857 6.486618,10.9380952 C7.33333333,11.8761905 8.486618,12.3666667 9.91240876,12.3904762 Z M6.25790754,5.10952381 C6.25790754,5.0952381 6.26277372,5.08095238 6.26277372,5.07142857 C6.42335766,1.65714286 8.90024331,1.29047619 9.96107056,1.29047619 L9.98053528,1.29047619 L10.0194647,1.29047619 C11.3333333,1.31904762 13.56691,1.84285714 13.7177616,5.07142857 C13.7177616,5.08571429 13.7177616,5.1 13.7226277,5.10952381 C13.7274939,5.14285714 14.0681265,8.38095238 12.5206813,10.0857143 C11.9075426,10.7619048 11.0900243,11.0952381 10.0145985,11.1047619 L9.99026764,11.1047619 L9.99026764,11.1047619 L9.96593674,11.1047619 C8.89537713,11.0952381 8.0729927,10.7619048 7.46472019,10.0857143 C5.92214112,8.39047619 6.25304136,5.13809524 6.25790754,5.10952381 Z" id="Shape"></path>
                                <path d="M19.9902676,18.2666667 L19.9902676,18.252381 C19.9902676,18.2142857 19.9854015,18.1761905 19.9854015,18.1333333 C19.9562044,17.1904762 19.892944,14.9857143 17.7810219,14.2809524 C17.7664234,14.2761905 17.7469586,14.2714286 17.7323601,14.2666667 C15.5377129,13.7190476 13.7128954,12.4809524 13.6934307,12.4666667 C13.3965937,12.2619048 12.9878345,12.3333333 12.7785888,12.6238095 C12.5693431,12.9142857 12.6423358,13.3142857 12.9391727,13.5190476 C13.0218978,13.5761905 14.9586375,14.8952381 17.3819951,15.5047619 C18.5158151,15.9 18.6423358,17.0857143 18.676399,18.1714286 C18.676399,18.2142857 18.676399,18.252381 18.6812652,18.2904762 C18.6861314,18.7190476 18.6569343,19.3809524 18.5790754,19.7619048 C17.7907543,20.2 14.7007299,21.7142857 10,21.7142857 C5.31873479,21.7142857 2.20924574,20.1952381 1.41605839,19.7571429 C1.33819951,19.3761905 1.30413625,18.7142857 1.31386861,18.2857143 C1.31386861,18.247619 1.31873479,18.2095238 1.31873479,18.1666667 C1.35279805,17.0809524 1.47931873,15.8952381 2.61313869,15.5 C5.03649635,14.8904762 6.97323601,13.5666667 7.05596107,13.5142857 C7.35279805,13.3095238 7.42579075,12.9095238 7.21654501,12.6190476 C7.00729927,12.3285714 6.59854015,12.2571429 6.30170316,12.4619048 C6.28223844,12.4761905 4.46715328,13.7142857 2.26277372,14.2619048 C2.243309,14.2666667 2.22871046,14.2714286 2.21411192,14.2761905 C0.102189781,14.9857143 0.0389294404,17.1904762 0.0097323601,18.1285714 C0.0097323601,18.1714286 0.0097323601,18.2095238 0.00486618005,18.247619 L0.00486618005,18.2619048 C3.19915101e-13,18.5095238 -0.00486618005,19.7809524 0.253041363,20.4190476 C0.301703163,20.5428571 0.389294404,20.647619 0.506082725,20.7190476 C0.652068127,20.8142857 4.15085158,22.9952381 10.0048662,22.9952381 C15.8588808,22.9952381 19.3576642,20.8095238 19.5036496,20.7190476 C19.6155718,20.647619 19.7080292,20.5428571 19.756691,20.4190476 C20,19.7857143 19.9951338,18.5142857 19.9902676,18.2666667 Z" id="Shape"></path>
                            </g>
                        </g>
                    </g>
                </g>
            </g>
        </g>
    </g>
</svg>