<?xml version="1.0" encoding="UTF-8"?>
<svg width="36px" height="41px" viewBox="0 0 36 41" version="1.1" xmlns="http://www.w3.org/2000/svg" xmlns:xlink="http://www.w3.org/1999/xlink">
    <!-- Generator: Sketch 44.1 (41455) - http://www.bohemiancoding.com/sketch -->
    <title>broadcast</title>
    <desc>Created with Sketch.</desc>
    <defs></defs>
    <g id="Page-1" stroke="none" stroke-width="1" fill="none" fill-rule="evenodd">
        <g id="5.-Done" transform="translate(-491.000000, -706.000000)" fill-rule="nonzero" fill="#262626">
            <g id="body" transform="translate(0.000000, 89.000000)">
                <g id="checkbox" transform="translate(461.000000, 597.000000)">
                    <g id="broadcast" transform="translate(30.000000, 20.000000)">
                        <path d="M16.2977143,39.4691921 L16.2977143,20.6849236 C15.4869977,20.141843 14.9465761,19.2039256 14.9465761,18.1425 C14.9465761,16.4640413 16.2977143,15.1063822 17.9682998,15.1063822 C19.6388852,15.1063822 20.9900234,16.4639566 20.9900234,18.1425 C20.9900234,19.3766508 20.252993,20.4380764 19.2212178,20.9070351 L19.2212178,39.4691921 C19.2212178,40.2837707 18.5579578,40.9501901 17.7472412,40.9501901 C16.9365246,40.9501901 16.2977143,40.2837707 16.2977143,39.4691921 Z M25.3136487,24.1406136 C25.5593255,24.288688 25.8050023,24.3627252 26.0752131,24.3627252 C26.5665667,24.3627252 27.0579204,24.1158781 27.3281311,23.6469194 C28.4335925,21.8203017 28.9740984,19.722186 28.8757939,17.5747686 C28.6301171,11.6013058 23.5939953,6.9361157 17.6242342,7.15822727 C14.7745012,7.28165083 12.1212927,8.51580165 10.1559625,10.6633037 C8.19063232,12.7860702 7.1833911,15.5753409 7.30622951,18.4633843 C7.37991569,20.1665785 7.8221171,21.7956508 8.63283372,23.2767335 C9.0258829,23.9925393 9.93490398,24.2641219 10.6473162,23.8444649 C11.3597283,23.4495434 11.6054052,22.5361921 11.212356,21.8203864 C10.6227822,20.7343099 10.3034192,19.5741963 10.2296487,18.3153099 C10.1559625,16.2171942 10.8929087,14.1931157 12.2932834,12.6380806 C13.6936581,11.0830455 15.6835222,10.2190806 17.7716066,10.1203079 C22.0953162,9.94749793 25.7802998,13.3291508 25.9522904,17.6981921 C26.0259766,19.2532273 25.6329274,20.7836116 24.8222108,22.1165351 C24.4047119,22.8076901 24.6258548,23.7210413 25.3136487,24.1406136 Z M29.6374426,29.8425785 C30.2516347,30.3609236 31.1851054,30.2868864 31.7256112,29.6697686 C34.4525059,26.4115393 35.9511007,22.289345 35.9511007,18.0190764 C35.9510164,8.07157851 27.9177892,0 18.0173677,0 C8.11694614,0 0.0837189696,8.07157851 0.0837189696,18.0190764 C0.0837189696,22.5361921 1.75422014,26.8311116 4.77594379,30.1634628 C5.07077283,30.4843471 5.46382201,30.657157 5.85687119,30.657157 C6.20076815,30.657157 6.56928337,30.5337335 6.83957845,30.2622355 C7.42915222,29.719155 7.47830445,28.7812376 6.9378829,28.1641198 C4.43204684,25.3995847 3.03175644,21.7957355 3.03175644,18.0191612 C3.03175644,9.72547107 9.76299766,2.96208058 18.017452,2.96208058 C26.2719063,2.96208058 33.0031475,9.72538636 33.0031475,18.0191612 C33.0031475,21.573624 31.7502295,25.029314 29.4655363,27.7445475 C28.9249461,28.3615806 28.9987166,29.2994979 29.6374426,29.8425785 Z" id="Shape"></path>
                    </g>
                </g>
            </g>
        </g>
    </g>
</svg>