<?xml version="1.0" encoding="UTF-8"?>
<svg width="25px" height="23px" viewBox="0 0 25 23" version="1.1" xmlns="http://www.w3.org/2000/svg" xmlns:xlink="http://www.w3.org/1999/xlink">
    <!-- Generator: Sketch 44.1 (41455) - http://www.bohemiancoding.com/sketch -->
    <title>calendar</title>
    <desc>Created with Sketch.</desc>
    <defs></defs>
    <g id="Page-1" stroke="none" stroke-width="1" fill="none" fill-rule="evenodd" opacity="0.695595562">
        <g id="4.-Apply" transform="translate(-479.000000, -3281.000000)" fill-rule="nonzero" fill="#262626">
            <g id="body" transform="translate(0.000000, 85.000000)">
                <g id="details" transform="translate(0.000000, 2667.000000)">
                    <g id="question-copy-10" transform="translate(229.000000, 457.000000)">
                        <g id="input-copy" transform="translate(0.000000, 53.000000)">
                            <g id="calendar" transform="translate(250.000000, 19.000000)">
                                <path d="M21.0498208,1.58910687 L17.931362,1.58910687 L17.931362,0.825278626 C17.931362,0.367034351 17.6195341,0.0614503817 17.1517025,0.0614503817 C16.683871,0.0614503817 16.372043,0.366946565 16.372043,0.825278626 L16.372043,1.58910687 L8.57589606,1.58910687 L8.57589606,0.825278626 C8.57589606,0.367034351 8.2640681,0.0614503817 7.79623656,0.0614503817 C7.32849462,0.0614503817 7.01657706,0.366946565 7.01657706,0.825278626 L7.01657706,1.58910687 L3.89811828,1.58910687 C1.71514337,1.58910687 0,3.26942366 0,5.40807252 L0,19.1563664 C0,21.2950153 1.71514337,22.9753321 3.89811828,22.9753321 L21.0498208,22.9753321 C23.2327957,22.9753321 24.9479391,21.2950153 24.9479391,19.1563664 L24.9479391,5.40807252 C24.9479391,3.26942366 23.2327957,1.58910687 21.0498208,1.58910687 L21.0498208,1.58910687 Z M1.55922939,5.40807252 C1.55922939,4.186 2.65071685,3.11667557 3.89811828,3.11667557 L7.01657706,3.11667557 L7.01657706,3.88050382 C7.01657706,4.33874809 7.32840502,4.64433206 7.79623656,4.64433206 C8.26397849,4.64433206 8.57589606,4.33883588 8.57589606,3.88050382 L8.57589606,3.11667557 L16.3721326,3.11667557 L16.3721326,3.88050382 C16.3721326,4.33874809 16.6839606,4.64433206 17.1517921,4.64433206 C17.6196237,4.64433206 17.9314516,4.33883588 17.9314516,3.88050382 L17.9314516,3.11667557 L21.0499104,3.11667557 C22.2973118,3.11667557 23.3887993,4.186 23.3887993,5.40807252 L23.3887993,7.69946947 L1.55922939,7.69946947 L1.55922939,5.40807252 L1.55922939,5.40807252 Z M23.3887097,19.1563664 C23.3887097,20.3784389 22.2972222,21.4477634 21.0498208,21.4477634 L3.89811828,21.4477634 C2.65071685,21.4477634 1.55922939,20.3784389 1.55922939,19.1563664 L1.55922939,9.22703817 L23.3887097,9.22703817 L23.3887097,19.1563664 Z" id="Shape"></path>
                                <path d="M5.45734767,19.1563664 C5.92508961,19.1563664 6.23700717,19.0036183 6.54883513,18.6981221 C6.86066308,18.392626 7.01657706,17.9342939 7.01657706,17.6287977 C7.01657706,17.3233015 6.86066308,16.8649695 6.54883513,16.5594733 C5.92517921,15.9484809 4.98960573,15.9484809 4.36586022,16.5594733 C4.05403226,16.8649695 3.89811828,17.1704656 3.89811828,17.6287977 C3.89811828,17.9342939 4.05403226,18.392626 4.36586022,18.6981221 C4.67768817,19.0036183 4.98960573,19.1563664 5.45734767,19.1563664 L5.45734767,19.1563664 Z" id="Shape"></path>
                                <path d="M5.45734767,14.5735725 C5.92508961,14.5735725 6.23700717,14.4208244 6.54883513,14.1153282 C6.86066308,13.8098321 7.01657706,13.3515 7.01657706,13.0460038 C7.01657706,12.7405076 6.86066308,12.2821756 6.54883513,11.9766794 C5.92517921,11.365687 4.98960573,11.365687 4.36586022,11.9766794 C4.05403226,12.2821756 3.89811828,12.5876718 3.89811828,13.0460038 C3.89811828,13.5043359 4.05403226,13.8098321 4.36586022,14.1153282 C4.67768817,14.4208244 4.98960573,14.5735725 5.45734767,14.5735725 L5.45734767,14.5735725 Z" id="Shape"></path>
                                <path d="M10.1351254,19.1563664 C10.6028674,19.1563664 10.9147849,19.0036183 11.2266129,18.6981221 C11.5384409,18.392626 11.6943548,17.9342939 11.6943548,17.6287977 C11.6943548,17.3233015 11.5384409,16.8649695 11.2266129,16.5594733 C10.602957,15.9484809 9.66738351,15.9484809 9.04363799,16.5594733 C8.73181004,16.8649695 8.57589606,17.3233015 8.57589606,17.6287977 C8.57589606,17.9342939 8.73181004,18.392626 9.04363799,18.6981221 C9.35546595,19.0036183 9.66738351,19.1563664 10.1351254,19.1563664 L10.1351254,19.1563664 Z" id="Shape"></path>
                                <path d="M10.1351254,14.5735725 C10.6028674,14.5735725 10.9147849,14.4208244 11.2266129,14.1153282 C11.5384409,13.8098321 11.6943548,13.3515 11.6943548,13.0460038 C11.6943548,12.7405076 11.5384409,12.2821756 11.2266129,11.9766794 C10.602957,11.365687 9.66738351,11.365687 9.04363799,11.9766794 C8.73181004,12.2821756 8.57589606,12.7405076 8.57589606,13.0460038 C8.57589606,13.3515 8.73181004,13.8098321 9.04363799,14.1153282 C9.35546595,14.4208244 9.66738351,14.5735725 10.1351254,14.5735725 L10.1351254,14.5735725 Z" id="Shape"></path>
                                <path d="M14.8128136,19.1563664 C15.2805556,19.1563664 15.5924731,19.0036183 15.9043011,18.6981221 C16.216129,18.392626 16.372043,18.0871298 16.372043,17.6287977 C16.372043,17.1704656 16.216129,16.8649695 15.9043011,16.5594733 C15.2806452,15.9484809 14.3450717,15.9484809 13.7213262,16.5594733 C13.4094982,16.8649695 13.2535842,17.3233015 13.2535842,17.6287977 C13.2535842,17.9342939 13.4094982,18.392626 13.7213262,18.6981221 C14.0331541,19.0036183 14.3450717,19.1563664 14.8128136,19.1563664 L14.8128136,19.1563664 Z" id="Shape"></path>
                                <path d="M14.8128136,14.5735725 C15.2805556,14.5735725 15.5924731,14.4208244 15.9043011,14.1153282 C16.216129,13.8098321 16.372043,13.5043359 16.372043,13.0460038 C16.372043,12.7405076 16.216129,12.2821756 15.9043011,11.9766794 C15.2806452,11.365687 14.3450717,11.365687 13.7213262,11.9766794 C13.4094982,12.2821756 13.2535842,12.7405076 13.2535842,13.0460038 C13.2535842,13.3515 13.4094982,13.8098321 13.7213262,14.1153282 C14.0331541,14.4208244 14.3450717,14.5735725 14.8128136,14.5735725 L14.8128136,14.5735725 Z" id="Shape"></path>
                                <path d="M19.4905914,19.1563664 C19.9583333,19.1563664 20.2702509,19.0036183 20.5820789,18.6981221 C20.8939068,18.392626 21.0498208,17.9342939 21.0498208,17.6287977 C21.0498208,17.3233015 20.8939068,16.8649695 20.5820789,16.5594733 C19.9584229,15.9484809 19.0228495,15.9484809 18.3991039,16.5594733 C18.087276,16.8649695 17.931362,17.1704656 17.931362,17.6287977 C17.931362,17.9342939 18.087276,18.392626 18.3991039,18.6981221 C18.7109319,19.0036183 19.0228495,19.1563664 19.4905914,19.1563664 L19.4905914,19.1563664 Z" id="Shape"></path>
                                <path d="M19.4905914,14.5735725 C19.9583333,14.5735725 20.2702509,14.4208244 20.5820789,14.1153282 C20.8939068,13.8098321 21.0498208,13.5043359 21.0498208,13.0460038 C21.0498208,12.7405076 20.8939068,12.2821756 20.5820789,11.9766794 C19.9584229,11.365687 19.0228495,11.365687 18.3991039,11.9766794 C18.087276,12.2821756 17.931362,12.7405076 17.931362,13.0460038 C17.931362,13.3515 18.087276,13.8098321 18.3991039,14.1153282 C18.7109319,14.4208244 19.0228495,14.5735725 19.4905914,14.5735725 L19.4905914,14.5735725 Z" id="Shape"></path>
                            </g>
                        </g>
                    </g>
                </g>
            </g>
        </g>
    </g>
</svg>