<?xml version="1.0" encoding="UTF-8"?>
<svg width="22px" height="40px" viewBox="0 0 22 40" version="1.1" xmlns="http://www.w3.org/2000/svg" xmlns:xlink="http://www.w3.org/1999/xlink">
    <!-- Generator: Sketch 44.1 (41455) - http://www.bohemiancoding.com/sketch -->
    <title>electr</title>
    <desc>Created with Sketch.</desc>
    <defs></defs>
    <g id="Page-1" stroke="none" stroke-width="1" fill="none" fill-rule="evenodd">
        <g id="2.-Current-use" transform="translate(-814.000000, -312.000000)" fill-rule="nonzero" fill="#333333">
            <g id="body" transform="translate(0.000000, 89.000000)">
                <g id="question" transform="translate(229.000000, 155.000000)">
                    <g id="checkbox-copy-2" transform="translate(490.000000, 53.000000)">
                        <g id="electr" transform="translate(95.000000, 15.000000)">
                            <path d="M14.230907,27.0467188 C13.9467894,26.81 13.5269438,26.85125 13.29301,27.1385937 L5.08386291,37.2253906 L8.79337394,27.3186719 C8.87088864,27.1114844 8.84301732,26.8789844 8.71856144,26.6967188 C8.59425996,26.5144531 8.38927835,26.405625 8.17032246,26.405625 L4.18696217,26.405625 L8.78380041,17.5371875 C8.89212026,17.3282812 8.88455408,17.0771875 8.76388129,16.8752344 C8.64320849,16.6732812 8.42695482,16.5499219 8.19379305,16.5499219 L1.53957246,16.5499219 L9.25877099,1.34828125 L14.2021864,1.34828125 C14.5700725,1.34828125 14.868396,1.04640625 14.868396,0.674140625 C14.868396,0.301875 14.5700725,0 14.2021864,0 L9.05957982,0 C8.68065335,0 8.33770482,0.211953125 8.16468644,0.552890625 L0.110182759,16.4147656 C-0.0487841527,16.7280469 -0.0349642997,17.1094531 0.146623936,17.4107812 C0.328289377,17.7113281 0.657263641,17.898125 1.00538496,17.898125 L7.09221952,17.898125 L2.7567232,26.2622656 C2.59381879,26.5760156 2.60539967,26.9592188 2.78667908,27.2626563 C2.96780408,27.5657031 3.29755041,27.7538281 3.64744746,27.7538281 L7.20563496,27.7538281 L3.14059085,38.6104688 C2.95923423,39.0785156 3.13842908,39.6035156 3.56638129,39.85875 C3.72110188,39.9511719 3.89774894,40 4.0770982,40 C4.37773791,40 4.66000261,39.8658594 4.85294011,39.6303125 L14.3218556,27.9957031 C14.555635,27.7082812 14.5148703,27.2835156 14.230907,27.0467188 Z" id="Shape"></path>
                            <path d="M21.1349296,9.3221875 C20.9582825,8.99601563 20.6201208,8.79335937 20.2524663,8.79335937 L16.0496097,8.79335937 L20.2352494,1.53125 C20.4162972,1.2171875 20.4175325,0.82625 20.2388009,0.511484375 C20.0600693,0.196015625 19.7256906,0 19.3660656,0 L16.8301612,0 C16.4622752,0 16.1639516,0.301875 16.1639516,0.674140625 C16.1639516,1.04640625 16.4622752,1.34828125 16.8301612,1.34828125 L18.7982163,1.34828125 L14.3144075,9.12773437 C14.1942752,9.33632812 14.1934259,9.59382812 14.3122458,9.803125 C14.4310656,10.0124219 14.651334,10.1415625 14.8899774,10.1415625 L19.6571318,10.1415625 L13.1047458,20.525 C12.9737274,20.7325781 12.9650031,20.9957812 13.0820472,21.2117187 C13.1989369,21.4277344 13.4229884,21.5619531 13.6663413,21.5619531 L18.2122237,21.5619531 L15.0167494,25.4882031 C14.7828156,25.775625 14.8235803,26.2004687 15.1075436,26.4372656 C15.2316134,26.540625 15.3816244,26.5909375 15.530709,26.5909375 C15.7230288,26.5909375 15.9137274,26.5071875 16.0454406,26.3453906 L19.6774369,21.8827344 C19.9254994,21.580625 19.9793891,21.1554687 19.8144774,20.7996094 C19.6494884,20.4436719 19.2920252,20.2136719 18.9036024,20.2136719 L14.882334,20.2136719 L21.1006502,10.3596094 C21.2983744,10.0464062 21.3115766,9.6490625 21.1349296,9.3221875 Z" id="Shape"></path>
                        </g>
                    </g>
                </g>
            </g>
        </g>
    </g>
</svg>