<?xml version="1.0" encoding="UTF-8"?>
<svg width="30px" height="18px" viewBox="0 0 30 18" version="1.1" xmlns="http://www.w3.org/2000/svg" xmlns:xlink="http://www.w3.org/1999/xlink">
    <!-- Generator: Sketch 44.1 (41455) - http://www.bohemiancoding.com/sketch -->
    <title>email</title>
    <desc>Created with Sketch.</desc>
    <defs></defs>
    <g id="Page-1" stroke="none" stroke-width="1" fill="none" fill-rule="evenodd" opacity="0.706748188">
        <g id="2.-Current-use--scrolled" transform="translate(-640.000000, -2693.000000)" fill-rule="nonzero" fill="#262626">
            <g id="body" transform="translate(0.000000, -15.000000)">
                <g id="question-copy-8" transform="translate(233.000000, 2634.000000)">
                    <g id="input-copy" transform="translate(0.000000, 53.000000)">
                        <path d="M436.979258,22.5365769 C436.978027,21.7029808 436.288906,21.0256731 435.44252,21.0256731 L435.440527,21.0256731 L408.53457,21.0620769 C408.124121,21.0625962 407.738398,21.2205 407.448535,21.5066538 C407.15873,21.7928654 406.999473,22.1731154 407,22.5771346 L407.020801,37.4634231 C407.021328,37.8675577 407.181699,38.2473462 407.472324,38.53275 C407.762422,38.8176346 408.147676,38.9743846 408.557422,38.9743846 L408.559473,38.9743846 L435.465371,38.9379808 C436.31252,38.9368269 437.000938,38.2572692 436.999941,37.4229231 L436.979258,22.5365769 Z M433.754551,22.5409615 L422.001172,30.5858077 L410.225,22.5728077 L433.754551,22.5409615 Z M426.971445,32.1040962 L433.942402,37.4270769 L410.037793,37.4593846 L417.05123,32.1040962 C417.386504,31.848 417.447559,31.3728462 417.18752,31.0426154 C416.927422,30.7125 416.444844,30.6523846 416.109453,30.9084231 L408.556309,36.6758654 L408.537559,23.2638462 L421.565527,32.1286731 C421.697012,32.2181538 421.849648,32.2628077 422.002344,32.2628077 C422.155684,32.2628077 422.309141,32.2176346 422.440918,32.1274615 L435.443574,23.2276154 L435.463262,36.6737308 L427.913105,30.9084808 C427.578008,30.6525 427.095195,30.7125577 426.835156,31.0426731 C426.575059,31.3727885 426.636055,31.8480577 426.971445,32.1040962 Z" id="email"></path>
                    </g>
                </g>
            </g>
        </g>
    </g>
</svg>