<?xml version="1.0" encoding="UTF-8"?>
<svg width="26px" height="40px" viewBox="0 0 26 40" version="1.1" xmlns="http://www.w3.org/2000/svg" xmlns:xlink="http://www.w3.org/1999/xlink">
    <!-- Generator: Sketch 44.1 (41455) - http://www.bohemiancoding.com/sketch -->
    <title>gas</title>
    <desc>Created with Sketch.</desc>
    <defs></defs>
    <g id="Page-1" stroke="none" stroke-width="1" fill="none" fill-rule="evenodd">
        <g id="2.-Current-use" transform="translate(-567.000000, -312.000000)" fill-rule="nonzero" fill="#333333">
            <g id="body" transform="translate(0.000000, 89.000000)">
                <g id="question" transform="translate(229.000000, 155.000000)">
                    <g id="checkbox-copy" transform="translate(245.000000, 53.000000)">
                        <g id="gas" transform="translate(93.000000, 15.000000)">
                            <path d="M24.9180309,19.7892969 C24.1668395,16.429375 23.5181235,13.5276563 24.802716,10.9178906 C24.9074383,10.7052344 24.8804753,10.4532813 24.7330617,10.2660156 C24.5856481,10.0788281 24.3426605,9.98820313 24.1044877,10.0315625 C23.9497716,10.0596875 20.4994753,10.7397656 18.2912407,15.4865625 C17.6930802,14.763125 16.7843642,13.5265625 16.0001914,11.8860938 C14.2675,8.26109375 13.9683395,4.533125 15.1109753,0.805390625 C15.1814321,0.575859375 15.1110556,0.3271875 14.9297778,0.16515625 C14.7485802,0.003046875 14.4884198,-0.044296875 14.2591543,0.0434375 C14.1821975,0.072890625 12.3550556,0.78546875 10.6198765,2.624375 C9.02328395,4.31640625 7.2032037,7.3225 7.59946296,12.0344531 C7.81003086,14.5382813 7.78724074,16.2922656 7.68789506,17.4883594 C7.18017284,15.8232813 6.33982716,14.5516406 5.59152469,13.6716406 C4.3238642,12.1807031 3.05315432,11.4683594 2.99962963,11.4388281 C2.78208025,11.3185156 2.51261111,11.3317969 2.3087037,11.4730469 C2.10487654,11.6142188 2.00360494,11.8577344 2.04918519,12.0973438 C2.8314321,16.2111719 2.05624691,18.5478125 1.23548148,21.0216406 C0.6305,22.8450781 0.00489506173,24.7307031 0.00489506173,27.3485938 C0.00505555556,34.3246875 5.83459259,40 13,40 C20.1654074,40 25.9949444,34.3246875 25.9949444,27.3486719 C25.9949444,24.6059375 25.4228642,22.0470313 24.9180309,19.7892969 Z M17.7931481,37.7478125 C18.6306049,36.726875 19.1329506,35.4345313 19.1329506,34.0292188 C19.1329506,29.7658594 17.7899383,26.2559375 16.6632716,24.0622656 C15.4395864,21.6795313 14.2215988,20.3126563 14.1704012,20.2557031 C13.9364012,19.9953125 13.5300309,19.9689063 13.2626481,20.1967188 C12.9952654,20.4245313 12.968142,20.8201563 13.2020617,21.0804688 C13.2484444,21.1321875 17.8462716,26.3367969 17.8462716,34.0292188 C17.8462716,36.6307813 15.6722222,38.7474219 12.9999198,38.7474219 C10.2261852,38.7474219 8.15364815,36.2564844 8.15364815,34.0292188 C8.15364815,32.9252344 8.40024691,32.17625 8.64154938,31.5892188 C8.77355556,31.2680469 8.61306173,30.9035156 8.28316667,30.775 C7.95319136,30.6464844 7.57883951,30.8027344 7.44691358,31.1238281 C7.17696296,31.7810156 6.86696914,32.7049219 6.86696914,34.0292188 C6.86696914,35.3586719 7.40510494,36.7141406 8.3537037,37.8104688 C4.20261111,36.0564844 1.29157407,32.0276563 1.29157407,27.3486719 C1.29157407,24.928125 1.85908025,23.2175781 2.45988889,21.4066406 C3.19222222,19.1991406 3.94654321,16.9257813 3.549,13.4064844 C4.88326543,14.5769531 6.86696914,16.9435938 6.86696914,20.668125 C6.86696914,20.9177344 7.01919753,21.1435156 7.25448148,21.2427344 C7.48960494,21.3420313 7.76292593,21.2957813 7.95014198,21.1251563 C8.21455556,20.8839844 9.50219753,19.3072656 8.88188889,11.9322656 C8.59604938,8.53445313 9.48662963,5.701875 11.5285123,3.51328125 C12.2185556,2.77367188 12.9320309,2.23460938 13.5098086,1.86476563 C12.5711605,6.26640625 13.6711852,9.9828125 14.8335617,12.4146875 C16.222716,15.3209375 17.9611852,17.0313281 18.0345309,17.1027344 C18.1890864,17.2532813 18.4117716,17.3170313 18.6256296,17.2720313 C18.8394074,17.2269531 19.0149877,17.0792188 19.091784,16.8798438 C20.2713333,13.8173438 21.9708827,12.4 23.1144012,11.7607031 C22.3884877,14.3653125 23.0091173,17.1421875 23.660642,20.0559375 C24.1757469,22.3591406 24.7081852,24.7408594 24.7081852,27.3488281 C24.7083457,31.9723438 21.866,35.9615625 17.7931481,37.7478125 Z" id="Shape"></path>
                            <path d="M13.6938148,24.7332813 C13.3473889,24.6575781 13.0030494,24.8697656 12.9252901,25.2071875 C12.745216,25.9882813 12.498216,26.5585938 12.2873272,26.9433594 C10.9605247,25.435625 9.72303704,25.3861719 9.56904321,25.3861719 C9.21379012,25.3861719 8.9257037,25.6665625 8.9257037,26.0125 C8.9257037,26.9402344 8.81351852,27.7315625 8.57261728,28.5025781 C8.46925926,28.8335156 8.66104938,29.1834375 9.00097531,29.2840625 C9.06340741,29.3025 9.12640123,29.3114063 9.1884321,29.3114063 C9.46416049,29.3114063 9.71918519,29.1373438 9.80360494,28.8671094 C10.0032593,28.2278906 10.1285247,27.5605469 10.1821296,26.8446094 C10.1948889,26.8510938 10.2078889,26.8578125 10.2209691,26.8647656 C10.6009383,27.0660156 11.179679,27.489375 11.778642,28.3640625 C11.8855309,28.5202344 12.0587037,28.6214063 12.2504938,28.6399219 C12.4426852,28.6585938 12.6325494,28.5922656 12.7687284,28.4595313 C12.864463,28.3663281 13.7174877,27.4908594 14.1806728,25.4814844 C14.2585123,25.1439844 14.0405617,24.8089063 13.6938148,24.7332813 Z" id="Shape"></path>
                        </g>
                    </g>
                </g>
            </g>
        </g>
    </g>
</svg>