<?xml version="1.0" encoding="UTF-8"?>
<svg width="38px" height="40px" viewBox="0 0 38 40" version="1.1" xmlns="http://www.w3.org/2000/svg" xmlns:xlink="http://www.w3.org/1999/xlink">
    <!-- Generator: Sketch 44.1 (41455) - http://www.bohemiancoding.com/sketch -->
    <title>gaselectr</title>
    <desc>Created with Sketch.</desc>
    <defs></defs>
    <g id="Page-1" stroke="none" stroke-width="1" fill="none" fill-rule="evenodd">
        <g id="2.-Current-use" transform="translate(-311.000000, -312.000000)" fill-rule="nonzero" fill="#333333">
            <g id="body" transform="translate(0.000000, 89.000000)">
                <g id="question" transform="translate(229.000000, 155.000000)">
                    <g id="checkbox" transform="translate(0.000000, 53.000000)">
                        <g id="gaselectr" transform="translate(82.000000, 15.000000)">
                            <g id="Group">
                                <path d="M11.5694375,21.637375 C11.3394375,21.448 10.9995625,21.481 10.8101875,21.710875 L4.1646875,29.7803125 L7.167625,21.8549375 C7.230375,21.6891875 7.2078125,21.5031875 7.1070625,21.357375 C7.0064375,21.2115625 6.8405,21.1245 6.66325,21.1245 L3.438625,21.1245 L7.159875,14.02975 C7.2475625,13.862625 7.2414375,13.66175 7.14375,13.5001875 C7.0460625,13.338625 6.871,13.2399375 6.68225,13.2399375 L1.2955,13.2399375 L7.544375,1.078625 L11.5461875,1.078625 C11.844,1.078625 12.0855,0.837125 12.0855,0.5393125 C12.0855,0.2415 11.844,0 11.5461875,0 L7.383125,0 C7.076375,0 6.79875,0.1695625 6.6586875,0.4423125 L0.138375,13.1318125 C0.0096875,13.3824375 0.020875,13.6875625 0.167875,13.928625 C0.3149375,14.1690625 0.58125,14.3185 0.8630625,14.3185 L5.7905,14.3185 L2.2808125,21.0098125 C2.1489375,21.2608125 2.1583125,21.567375 2.3050625,21.810125 C2.4516875,22.0525625 2.718625,22.2030625 3.001875,22.2030625 L5.8823125,22.2030625 L2.5915625,30.888375 C2.44475,31.2628125 2.5898125,31.6828125 2.93625,31.887 C3.0615,31.9609375 3.2045,32 3.3496875,32 C3.5930625,32 3.8215625,31.8926875 3.97775,31.70425 L11.6430625,22.3965625 C11.8323125,22.166625 11.7993125,21.8268125 11.5694375,21.637375 Z" id="Shape"></path>
                                <path d="M16.850625,7.45775 C16.707625,7.1968125 16.433875,7.0346875 16.13625,7.0346875 L12.7339375,7.0346875 L16.1223125,1.225 C16.268875,0.97375 16.269875,0.661 16.1251875,0.4091875 C15.9805,0.1568125 15.7098125,0 15.4186875,0 L13.3658125,0 C13.068,0 12.8265,0.2415 12.8265,0.5393125 C12.8265,0.837125 13.068,1.078625 13.3658125,1.078625 L14.959,1.078625 L11.32925,7.3021875 C11.232,7.4690625 11.2313125,7.6750625 11.3275,7.8425 C11.4236875,8.0099375 11.602,8.11325 11.7951875,8.11325 L15.6543125,8.11325 L10.35,16.42 C10.2439375,16.5860625 10.236875,16.796625 10.331625,16.969375 C10.42625,17.1421875 10.607625,17.2495625 10.804625,17.2495625 L14.484625,17.2495625 L11.8978125,20.3905625 C11.7084375,20.6205 11.7414375,20.960375 11.9713125,21.1498125 C12.07175,21.2325 12.1931875,21.27275 12.313875,21.27275 C12.4695625,21.27275 12.6239375,21.20575 12.7305625,21.0763125 L15.67075,17.5061875 C15.8715625,17.2645 15.9151875,16.924375 15.7816875,16.6396875 C15.648125,16.3549375 15.35875,16.1709375 15.0443125,16.1709375 L11.789,16.1709375 L16.822875,8.2876875 C16.9829375,8.037125 16.993625,7.71925 16.850625,7.45775 Z" id="Shape"></path>
                            </g>
                            <g id="001-fire" transform="translate(17.000000, 7.000000)">
                                <path d="M20.1261019,16.3261699 C19.5193704,13.5542344 18.9954074,11.1603164 20.032963,9.00725977 C20.1175463,8.83181836 20.0957685,8.62395703 19.9767037,8.46946289 C19.8576389,8.3150332 19.6613796,8.24026758 19.4690093,8.27603906 C19.3440463,8.29924219 16.5572685,8.86030664 14.7736944,12.7764141 C14.2905648,12.1795781 13.5566019,11.1594141 12.9232315,9.80602734 C11.52375,6.81540234 11.2821204,3.73982813 12.2050185,0.664447266 C12.2619259,0.475083984 12.2050833,0.269929688 12.0586667,0.136253906 C11.9123148,0.00251367188 11.7021852,-0.0365449219 11.5170093,0.0358359375 C11.4548519,0.0601347656 9.97908333,0.648011719 8.57759259,2.16510938 C7.28803704,3.56103516 5.81797222,6.0410625 6.13802778,9.92842383 C6.30810185,11.994082 6.28969444,13.4411191 6.2094537,14.4278965 C5.79937037,13.054207 5.12062963,12.0051035 4.51623148,11.2791035 C3.49235185,10.0490801 2.46600926,9.46139648 2.42277778,9.4370332 C2.24706481,9.33777539 2.02941667,9.34873242 1.86472222,9.46526367 C1.70009259,9.58173047 1.6182963,9.78263086 1.65511111,9.98030859 C2.28692593,13.3742168 1.66081481,15.3019453 0.997888889,17.3428535 C0.50925,18.8471895 0.0039537037,20.4028301 0.0039537037,22.5625898 C0.00408333333,28.3178672 4.71255556,33 10.5,33 C16.2874444,33 20.9959167,28.3178672 20.9959167,22.5626543 C20.9959167,20.2998984 20.5338519,18.1888008 20.1261019,16.3261699 Z M14.3713889,31.1419453 C15.0477963,30.2996719 15.453537,29.2334883 15.453537,28.0741055 C15.453537,24.556834 14.3687963,21.6611484 13.4587963,19.8513691 C12.4704352,17.8856133 11.4866759,16.7579414 11.4453241,16.7109551 C11.2563241,16.4961328 10.9281019,16.4743477 10.7121389,16.662293 C10.4961759,16.8502383 10.4742685,17.1766289 10.6632037,17.3913867 C10.7006667,17.4340547 14.4142963,21.7278574 14.4142963,28.0741055 C14.4142963,30.2203945 12.6583333,31.966623 10.4999352,31.966623 C8.25961111,31.966623 6.58563889,29.9115996 6.58563889,28.0741055 C6.58563889,27.1633184 6.78481481,26.5454062 6.97971296,26.0611055 C7.08633333,25.7961387 6.9567037,25.4954004 6.69025,25.389375 C6.42373148,25.2833496 6.12137037,25.4122559 6.01481481,25.6771582 C5.79677778,26.2193379 5.54639815,26.9815605 5.54639815,28.0741055 C5.54639815,29.1709043 5.9810463,30.289166 6.74722222,31.1936367 C3.39441667,29.7465996 1.04319444,26.4228164 1.04319444,22.5626543 C1.04319444,20.5657031 1.50156481,19.154502 1.98683333,17.6604785 C2.57833333,15.839291 3.18759259,13.9637695 2.8665,11.0603496 C3.94417593,12.0259863 5.54639815,13.9784648 5.54639815,17.0512031 C5.54639815,17.2571309 5.66935185,17.4434004 5.85938889,17.5252559 C6.0492963,17.6071758 6.27005556,17.5690195 6.42126852,17.4282539 C6.63483333,17.2292871 7.67485185,15.9284941 7.17383333,9.84411914 C6.94296296,7.04092383 7.66227778,4.70404688 9.31149074,2.89845703 C9.86883333,2.2882793 10.4451019,1.84355273 10.9117685,1.53843164 C10.1536296,5.16978516 11.0421111,8.23582031 11.9809537,10.2421172 C13.102963,12.6397734 14.5071111,14.0508457 14.5663519,14.1097559 C14.6911852,14.233957 14.8710463,14.2865508 15.0437778,14.2494258 C15.2164444,14.2122363 15.3582593,14.0903555 15.420287,13.9258711 C16.373,11.3993086 17.745713,10.23 18.6693241,9.70258008 C18.0830093,11.8513828 18.584287,14.1423047 19.1105185,16.5461484 C19.5265648,18.446291 19.9566111,20.411209 19.9566111,22.5627832 C19.9567407,26.3771836 17.661,29.6682891 14.3713889,31.1419453 Z" id="Shape"></path>
                                <path d="M11.0603889,20.404957 C10.7805833,20.342502 10.502463,20.5175566 10.4396574,20.7959297 C10.294213,21.440332 10.094713,21.9108398 9.92437963,22.2282715 C8.85273148,20.9843906 7.85322222,20.9435918 7.72884259,20.9435918 C7.44190741,20.9435918 7.20922222,21.1749141 7.20922222,21.4603125 C7.20922222,22.2256934 7.11861111,22.8785391 6.92403704,23.514627 C6.84055556,23.7876504 6.99546296,24.0763359 7.27001852,24.1593516 C7.32044444,24.1745625 7.37132407,24.1819102 7.42142593,24.1819102 C7.64412963,24.1819102 7.85011111,24.0383086 7.9182963,23.8153652 C8.07955556,23.2880098 8.18073148,22.7374512 8.22402778,22.1468027 C8.23433333,22.1521523 8.24483333,22.1576953 8.25539815,22.1634316 C8.5622963,22.3294629 9.02974074,22.6787344 9.51351852,23.4003516 C9.59985185,23.5291934 9.73972222,23.6126602 9.89462963,23.6279355 C10.0498611,23.6433398 10.203213,23.5886191 10.3132037,23.4791133 C10.3905278,23.4022207 11.0795093,22.679959 11.4536204,21.0222246 C11.5164907,20.7437871 11.3404537,20.4673477 11.0603889,20.404957 Z" id="Shape"></path>
                            </g>
                        </g>
                    </g>
                </g>
            </g>
        </g>
    </g>
</svg>