<?xml version="1.0" encoding="UTF-8"?>
<svg width="18px" height="18px" viewBox="0 0 18 18" version="1.1" xmlns="http://www.w3.org/2000/svg" xmlns:xlink="http://www.w3.org/1999/xlink">
    <!-- Generator: Sketch 44.1 (41455) - http://www.bohemiancoding.com/sketch -->
    <title>minus</title>
    <desc>Created with Sketch.</desc>
    <defs></defs>
    <g id="Page-1" stroke="none" stroke-width="1" fill="none" fill-rule="evenodd" opacity="0.704370471">
        <g id="4.-Apply" transform="translate(-585.000000, -1070.000000)" fill-rule="nonzero" fill="#262626">
            <g id="body" transform="translate(0.000000, 85.000000)">
                <g id="home" transform="translate(0.000000, 786.000000)">
                    <g id="Group-2" transform="translate(229.000000, 125.000000)">
                        <g id="question-copy-7">
                            <g id="input-number" transform="translate(256.000000, 53.000000)">
                                <path d="M117.009842,21.9901422 C116.349942,21.3300885 115.554877,21 114.625262,21 L103.375026,21 C102.445411,21 101.650345,21.3300885 100.990158,21.9901422 C100.330094,22.6503191 100,23.4453307 100,24.3749718 L100,35.6249051 C100,36.554464 100.330094,37.3495577 100.990158,38.0097346 C101.650345,38.6699115 102.445411,39 103.375026,39 L114.625139,39 C115.554753,39 116.349819,38.6699115 117.009719,38.0097346 C117.669906,37.3495577 118,36.5545051 118,35.6249051 L118,24.3749718 C117.999959,23.4453307 117.669865,22.650196 117.009842,21.9901422 Z M115.000178,30.749923 C115.000178,30.9530165 114.925843,31.1290199 114.777666,31.2772354 C114.629038,31.4255741 114.453196,31.5000308 114.250058,31.5000308 L103.749983,31.5000308 C103.546886,31.5000308 103.371167,31.4256152 103.222662,31.2772354 C103.07428,31.1290609 103.000027,30.9530576 103.000027,30.749923 L103.000027,29.2498307 C103.000027,29.0467372 103.07428,28.8709391 103.222662,28.7225183 C103.371126,28.5740565 103.546845,28.499805 103.749983,28.499805 L114.250099,28.499805 C114.453196,28.499805 114.629038,28.5740565 114.777707,28.7225183 C114.926007,28.870898 115.000219,29.0466962 115.000219,29.2498307 L115.000219,30.749923 L115.000178,30.749923 Z" id="minus"></path>
                            </g>
                        </g>
                    </g>
                </g>
            </g>
        </g>
    </g>
</svg>