<?xml version="1.0" encoding="UTF-8"?>
<svg width="21px" height="22px" viewBox="0 0 21 22" version="1.1" xmlns="http://www.w3.org/2000/svg" xmlns:xlink="http://www.w3.org/1999/xlink">
    <!-- Generator: Sketch 44.1 (41455) - http://www.bohemiancoding.com/sketch -->
    <title>no</title>
    <desc>Created with Sketch.</desc>
    <defs></defs>
    <g id="Page-1" stroke="none" stroke-width="1" fill="none" fill-rule="evenodd">
        <g id="2.-Current-use" transform="translate(-536.000000, -524.000000)" fill-rule="nonzero" fill="#333333">
            <g id="body" transform="translate(0.000000, 89.000000)">
                <g id="question-copy" transform="translate(229.000000, 363.000000)">
                    <g id="checkbox-copy" transform="translate(245.000000, 53.000000)">
                        <path d="M62.0034526,37.723 C62.0424526,38.59 62.4174526,39.3905 63.0584526,39.9755 C63.6589526,40.5235 64.4369526,40.8255 65.2494526,40.8255 C66.1604526,40.8255 67.0354526,40.44 67.6499526,39.767 L72.2474526,34.732 L76.8449526,39.7675 C77.4594526,40.44 78.3344526,40.826 79.2454526,40.826 C80.0584526,40.826 80.8369526,40.524 81.4364526,39.976 C82.0774526,39.3905 82.4524526,38.5905 82.4914526,37.7235 C82.5309526,36.8565 82.2304526,36.0255 81.6449526,35.3845 L76.6494526,29.9125 L81.6449526,24.441 C82.2304526,23.8 82.5309526,22.969 82.4914526,22.102 C82.4524526,21.235 82.0774526,20.4345 81.4364526,19.8495 C80.8364526,19.3015 80.0579526,19 79.2454526,19 C78.3344526,19 77.4594526,19.3855 76.8449526,20.0585 L72.2474526,25.0935 L67.6499526,20.058 C67.0354526,19.3855 66.1604526,19 65.2489526,19 C64.4364526,19 63.6584526,19.302 63.0584526,19.8495 C62.4174526,20.435 62.0424526,21.235 62.0034526,22.102 C61.9639526,22.969 62.2644526,23.8 62.8499526,24.441 L67.8454526,29.913 L62.8499526,35.3835 C62.2644526,36.025 61.9639526,36.8555 62.0034526,37.723 Z M63.9574526,36.395 L69.0774526,30.7875 C69.5264526,30.2965 69.5264526,29.5275 69.0779526,29.0375 L63.9574526,23.4285 C63.6424526,23.0835 63.4804526,22.6365 63.5014526,22.1695 C63.5229526,21.7025 63.7244526,21.272 64.0704526,20.9565 C64.7559526,20.3305 65.9179526,20.385 66.5424526,21.069 L71.3569526,26.342 C71.8179526,26.846 72.6769526,26.8465 73.1389526,26.3415 L77.9529526,21.0695 C78.5784526,20.384 79.7404526,20.331 80.4249526,20.957 C80.7704526,21.272 80.9724526,21.703 80.9939526,22.17 C81.0149526,22.637 80.8529526,23.0845 80.5379526,23.4295 L75.4174526,29.0365 C74.9684526,29.5275 74.9684526,30.2965 75.4169526,30.7865 L80.5374526,36.395 C80.8524526,36.74 81.0144526,37.187 80.9934526,37.6545 C80.9719526,38.1215 80.7704526,38.552 80.4244526,38.8675 C79.7399526,39.4935 78.5789526,39.4405 77.9524526,38.755 L73.1379526,33.482 C72.9074526,33.23 72.5829526,33.0855 72.2474526,33.0855 C71.9119526,33.0855 71.5874526,33.23 71.3564526,33.4825 L66.5424526,38.7545 C65.9164526,39.4395 64.7569526,39.494 64.0704526,38.867 C63.7249526,38.552 63.5229526,38.121 63.5014526,37.654 C63.4804526,37.1875 63.6424526,36.7405 63.9574526,36.395 Z" id="no"></path>
                    </g>
                </g>
            </g>
        </g>
    </g>
</svg>