<?xml version="1.0" encoding="UTF-8"?>
<svg width="24px" height="24px" viewBox="0 0 24 24" version="1.1" xmlns="http://www.w3.org/2000/svg" xmlns:xlink="http://www.w3.org/1999/xlink">
    <!-- Generator: Sketch 44.1 (41455) - http://www.bohemiancoding.com/sketch -->
    <title>phone</title>
    <desc>Created with Sketch.</desc>
    <defs></defs>
    <g id="Page-1" stroke="none" stroke-width="1" fill="none" fill-rule="evenodd" opacity="0.700011322">
        <g id="2.-Current-use--scrolled" transform="translate(-644.000000, -2843.000000)" fill-rule="nonzero" fill="#262626">
            <g id="body" transform="translate(0.000000, -15.000000)">
                <g id="question-copy-9" transform="translate(233.000000, 2787.000000)">
                    <g id="input-copy" transform="translate(0.000000, 53.000000)">
                        <path d="M415.832575,33.9395061 C418.204664,36.7691787 421.06014,38.9971107 424.319271,40.5735716 C425.560133,41.1603929 427.219598,41.8566217 429.068432,41.9759752 C429.18305,41.9809483 429.292684,41.9859213 429.407302,41.9859213 C430.648164,41.9859213 431.64484,41.5582379 432.457131,40.6780059 C432.462114,40.6730328 432.472081,40.6630867 432.477064,40.6531406 C432.7661,40.3050262 433.095003,39.9917232 433.438857,39.658528 C433.673075,39.4347402 433.912278,39.2010063 434.141513,38.9622993 C435.202973,37.8582794 435.202973,36.4558757 434.131546,35.3866673 L431.136535,32.3978567 C430.62823,31.870712 430.020258,31.5922205 429.382385,31.5922205 C428.744513,31.5922205 428.131557,31.870712 427.608302,32.3928836 L425.824252,34.17324 C425.6598,34.0787518 425.490365,33.9942098 425.330897,33.9146408 C425.131562,33.8151795 424.947177,33.7206913 424.782725,33.616257 C423.158143,32.5868331 421.683063,31.2441062 420.272766,29.5184534 C419.560143,28.6183291 419.081738,27.8624236 418.747852,27.0915989 C419.21629,26.6688886 419.654827,26.226286 420.078414,25.7936296 C420.227916,25.6394646 420.382401,25.4852997 420.536885,25.3311348 C421.075091,24.794044 421.364127,24.1724112 421.364127,23.5408322 C421.364127,22.9092533 421.080074,22.2876205 420.536885,21.7505297 L419.051838,20.268557 C418.87742,20.0944999 418.712968,19.9254157 418.543533,19.7513585 C418.21463,19.4131903 417.870777,19.0650759 417.531907,18.751773 C417.018619,18.2494936 416.41563,17.9859213 415.777757,17.9859213 C415.144868,17.9859213 414.536896,18.2494936 414.003674,18.756746 L412.13989,20.6166714 C411.46215,21.2930079 411.07843,22.1135633 410.998696,23.0634182 C410.904012,24.2519802 411.12328,25.5151381 411.691386,27.0418683 C412.563477,29.404073 413.87909,31.5971936 415.832575,33.9395061 Z M412.214641,23.1678525 C412.274441,22.5064352 412.528594,21.9544253 413.006998,21.4770113 L414.860815,19.627032 C415.149852,19.3485405 415.468788,19.2043217 415.777757,19.2043217 C416.081744,19.2043217 416.390713,19.3485405 416.674766,19.6369781 C417.008652,19.945308 417.322605,20.268557 417.661475,20.6116984 C417.83091,20.7857556 418.005328,20.9598127 418.179747,21.138843 L419.664794,22.6208156 C419.973764,22.9291455 420.133232,23.2424485 420.133232,23.5507783 C420.133232,23.8591082 419.973764,24.1724112 419.664794,24.4807411 C419.510309,24.634906 419.355824,24.794044 419.20134,24.9482089 C418.737885,25.4156768 418.304331,25.8582794 417.825927,26.2809897 C417.81596,26.2909358 417.810977,26.2959089 417.80101,26.305855 C417.387389,26.7186192 417.452173,27.1114912 417.551841,27.4098749 C417.556824,27.4247941 417.561808,27.4347402 417.566791,27.4496594 C417.950511,28.369676 418.483733,29.244935 419.315957,30.2892781 C420.810971,32.1293113 422.385719,33.5565803 424.119936,34.6556271 C424.334221,34.7948728 424.563457,34.9042802 424.777742,35.0136876 C424.977077,35.1131488 425.161462,35.207637 425.325914,35.3120713 C425.345847,35.3220175 425.360797,35.3319636 425.380731,35.3419097 C425.545182,35.4264518 425.704651,35.4662363 425.864119,35.4662363 C426.262789,35.4662363 426.521925,35.2126101 426.606642,35.128068 L428.470427,33.2681426 C428.759463,32.979705 429.073416,32.8255401 429.382385,32.8255401 C429.761122,32.8255401 430.070092,33.059274 430.264443,33.2681426 L433.269422,36.2619263 C433.867427,36.8586938 433.862444,37.5051919 433.254472,38.1367709 C433.04517,38.3605587 432.825901,38.5744004 432.591682,38.7981882 C432.242845,39.1363565 431.879059,39.4844708 431.550156,39.8773428 C430.977067,40.4940026 430.294344,40.7824402 429.412285,40.7824402 C429.327568,40.7824402 429.237867,40.7774671 429.15315,40.7724941 C427.518601,40.6680597 425.99867,40.0315077 424.857476,39.4894439 C421.757814,37.9925521 419.036888,35.8690544 416.779417,33.1736544 C414.920616,30.9407493 413.669788,28.8620092 412.842547,26.6340771 C412.329258,25.2664849 412.134907,24.1674381 412.214641,23.1678525 Z" id="phone"></path>
                    </g>
                </g>
            </g>
        </g>
    </g>
</svg>