<?xml version="1.0" encoding="UTF-8"?>
<svg width="19px" height="19px" viewBox="0 0 19 19" version="1.1" xmlns="http://www.w3.org/2000/svg" xmlns:xlink="http://www.w3.org/1999/xlink">
    <!-- Generator: Sketch 44.1 (41455) - http://www.bohemiancoding.com/sketch -->
    <title>plus</title>
    <desc>Created with Sketch.</desc>
    <defs></defs>
    <g id="Page-1" stroke="none" stroke-width="1" fill="none" fill-rule="evenodd" opacity="0.714673913">
        <g id="4.-Apply" transform="translate(-645.000000, -1069.000000)" fill-rule="nonzero" fill="#262626">
            <g id="body" transform="translate(0.000000, 85.000000)">
                <g id="home" transform="translate(0.000000, 786.000000)">
                    <g id="Group-2" transform="translate(229.000000, 125.000000)">
                        <g id="question-copy-7">
                            <g id="input-number" transform="translate(256.000000, 53.000000)">
                                <path d="M177.509927,21.4900967 C176.850027,20.8300429 176.054962,20.4999545 175.125347,20.4999545 L163.875111,20.4999545 C162.945496,20.4999545 162.150431,20.8300429 161.490243,21.4900967 C160.830179,22.1502736 160.500085,22.9452852 160.500085,23.8749263 L160.500085,35.1248596 C160.500085,36.0544185 160.830179,36.8495122 161.490243,37.5096891 C162.150431,38.169866 162.945496,38.4999545 163.875111,38.4999545 L175.125224,38.4999545 C176.054839,38.4999545 176.849904,38.169866 177.509804,37.5096891 C178.169992,36.8495122 178.500085,36.0544596 178.500085,35.1248596 L178.500085,23.8749263 C178.500044,22.9452852 178.169951,22.1501505 177.509927,21.4900967 Z M175.500263,30.2498775 C175.500263,30.452971 175.425929,30.6289744 175.277752,30.7771899 C175.129123,30.9255286 174.953281,30.9999853 174.750144,30.9999853 L171.000407,30.9999853 L171.000407,34.7498262 C171.000407,34.9529197 170.925826,35.1287589 170.777444,35.2771386 C170.629267,35.4257236 170.453302,35.4998929 170.250123,35.4998929 L168.750171,35.4998929 C168.547074,35.4998929 168.371273,35.4257236 168.22285,35.2771386 C168.074386,35.1287999 168.000133,34.9529607 168.000133,34.7498262 L168.000133,30.9999853 L164.250068,30.9999853 C164.046972,30.9999853 163.871253,30.9255697 163.722747,30.7771899 C163.574365,30.6290154 163.500113,30.453012 163.500113,30.2498775 L163.500113,28.7497852 C163.500113,28.5466917 163.574365,28.3708935 163.722747,28.2224728 C163.871212,28.0740109 164.046931,27.9997595 164.250068,27.9997595 L168.000174,27.9997595 L168.000174,24.2498775 C168.000174,24.046743 168.074427,23.8709038 168.222891,23.7225651 C168.371314,23.5740623 168.547074,23.4997698 168.750212,23.4997698 L170.250164,23.4997698 C170.453302,23.4997698 170.629267,23.5740623 170.777485,23.7225651 C170.925826,23.8709038 171.000448,24.046743 171.000448,24.2498775 L171.000448,27.9998006 L174.750185,27.9998006 C174.953281,27.9998006 175.129123,28.074052 175.277793,28.2225138 C175.426093,28.3708935 175.500304,28.5466917 175.500304,28.7498262 L175.500304,30.2498775 L175.500263,30.2498775 Z" id="plus"></path>
                            </g>
                        </g>
                    </g>
                </g>
            </g>
        </g>
    </g>
</svg>