<?xml version="1.0" encoding="UTF-8"?>
<svg width="40px" height="40px" viewBox="0 0 40 40" version="1.1" xmlns="http://www.w3.org/2000/svg" xmlns:xlink="http://www.w3.org/1999/xlink">
    <!-- Generator: Sketch 44.1 (41455) - http://www.bohemiancoding.com/sketch -->
    <title>Shape</title>
    <desc>Created with Sketch.</desc>
    <defs></defs>
    <g id="Page-1" stroke="none" stroke-width="1" fill="none" fill-rule="evenodd">
        <g id="2.-Current-use--scrolled" transform="translate(-805.000000, -562.000000)" fill-rule="nonzero" fill="#3179C5">
            <g id="body" transform="translate(0.000000, -15.000000)">
                <g id="question-copy-2" transform="translate(228.000000, 374.000000)">
                    <g id="checkbox-copy-8" transform="translate(491.000000, 188.000000)">
                        <g id="plus-symbol-in-a-rounded-black-square" transform="translate(86.000000, 15.000000)">
                            <path d="M37.7594533,2.19799544 C36.2945786,0.732756264 34.5296583,0 32.4660592,0 L7.49230068,0 C5.42870159,0 3.66378132,0.732756264 2.19826879,2.19799544 C0.733029613,3.66350797 0.000273348519,5.42833713 0.000273348519,7.49202733 L0.000273348519,32.4655125 C0.000273348519,34.5290205 0.733029613,36.2940319 2.19826879,37.7595444 C3.66378132,39.2250569 5.42870159,39.9578132 7.49230068,39.9578132 L32.4657859,39.9578132 C34.529385,39.9578132 36.2943052,39.2250569 37.75918,37.7595444 C39.2246925,36.2940319 39.9574487,34.5291116 39.9574487,32.4655125 L39.9574487,7.49202733 C39.9573576,5.42833713 39.2246014,3.66323462 37.7594533,2.19799544 Z M33.2983144,21.6436446 C33.2983144,22.0944875 33.133303,22.4851936 32.8043736,22.8142141 C32.4744419,23.143508 32.0841002,23.3087927 31.6331663,23.3087927 L23.3093394,23.3087927 L23.3093394,31.6329841 C23.3093394,32.0838269 23.1437813,32.4741686 22.8143964,32.8035535 C22.485467,33.1333941 22.0948519,33.298041 21.6438269,33.298041 L18.3141686,33.298041 C17.8633257,33.298041 17.4730752,33.1333941 17.1435991,32.8035535 C16.8140319,32.4742597 16.6492027,32.083918 16.6492027,31.6329841 L16.6492027,23.3087927 L8.32464692,23.3087927 C7.8738041,23.3087927 7.48373576,23.1435991 7.15407745,22.8142141 C6.82469248,22.4852847 6.65986333,22.0945786 6.65986333,21.6436446 L6.65986333,18.3136219 C6.65986333,17.862779 6.82469248,17.4725285 7.15407745,17.1430524 C7.48364465,16.8134852 7.87371298,16.648656 8.32464692,16.648656 L16.6492938,16.648656 L16.6492938,8.32437358 C16.6492938,7.87343964 16.814123,7.48309795 17.1436902,7.1538041 C17.4731663,6.82414579 17.8633257,6.65922551 18.3142597,6.65922551 L21.643918,6.65922551 C22.0948519,6.65922551 22.485467,6.82414579 22.8144875,7.1538041 C23.1437813,7.48309795 23.3094305,7.87343964 23.3094305,8.32437358 L23.3094305,16.6487472 L31.6332574,16.6487472 C32.0841002,16.6487472 32.4744419,16.8135763 32.8044647,17.1431435 C33.1336674,17.4725285 33.2984055,17.862779 33.2984055,18.313713 L33.2984055,21.6436446 L33.2983144,21.6436446 Z" id="Shape"></path>
                        </g>
                    </g>
                </g>
            </g>
        </g>
    </g>
</svg>