<?xml version="1.0" encoding="UTF-8"?>
<svg width="44px" height="40px" viewBox="0 0 44 40" version="1.1" xmlns="http://www.w3.org/2000/svg" xmlns:xlink="http://www.w3.org/1999/xlink">
    <!-- Generator: Sketch 44.1 (41455) - http://www.bohemiancoding.com/sketch -->
    <title>smartphone</title>
    <desc>Created with Sketch.</desc>
    <defs></defs>
    <g id="Page-1" stroke="none" stroke-width="1" fill="none" fill-rule="evenodd">
        <g id="5.-Done" transform="translate(-870.000000, -707.000000)" fill-rule="nonzero" fill="#262626">
            <g id="body" transform="translate(0.000000, 89.000000)">
                <g id="checkbox-copy" transform="translate(841.000000, 597.000000)">
                    <g id="smartphone" transform="translate(29.000000, 21.000000)">
                        <path d="M13.1190184,39.963964 L30.8359918,39.963964 C32.590593,39.963964 34.0212679,38.5315315 34.0212679,36.7747748 L34.0212679,3.26126126 C34.0212679,1.5045045 32.590593,0.0720720721 30.8359918,0.0720720721 L13.1190184,0.0720720721 C11.3644172,0.0720720721 9.93374233,1.5045045 9.93374233,3.26126126 L9.93374233,36.7747748 C9.93374233,38.5315315 11.3644172,39.963964 13.1190184,39.963964 Z M31.807771,30.6576577 L12.1382413,30.6576577 L12.1382413,7.43243243 L31.807771,7.43243243 L31.807771,30.6576577 Z M30.8269939,37.7567568 L13.1190184,37.7567568 C12.5791411,37.7567568 12.1382413,37.3153153 12.1382413,36.7747748 L12.1382413,32.8648649 L31.807771,32.8648649 L31.807771,36.7747748 C31.807771,37.3153153 31.3668712,37.7567568 30.8269939,37.7567568 Z M13.1190184,2.27927928 L30.8359918,2.27927928 C31.3758691,2.27927928 31.8167689,2.72072072 31.8167689,3.26126126 L31.8167689,5.22522523 L12.1382413,5.22522523 L12.1382413,3.26126126 C12.1382413,2.72072072 12.5791411,2.27927928 13.1190184,2.27927928 Z" id="Shape"></path>
                        <path d="M24.1685072,34.1531532 L19.7775051,34.1531532 C19.1656442,34.1531532 18.6707566,34.6486486 18.6707566,35.2612613 C18.6707566,35.8738739 19.1656442,36.3693694 19.7775051,36.3693694 L24.1685072,36.3693694 C24.7803681,36.3693694 25.2752556,35.8738739 25.2752556,35.2612613 C25.2752556,34.6486486 24.7713701,34.1531532 24.1685072,34.1531532 Z" id="Shape"></path>
                        <path d="M40.1758691,34.1531532 L37.008589,34.1531532 C36.396728,34.1531532 35.9018405,34.6486486 35.9018405,35.2612613 C35.9018405,35.8738739 36.396728,36.3693694 37.008589,36.3693694 L40.1758691,36.3693694 C42.2543967,36.3693694 43.9460123,34.6756757 43.9460123,32.5945946 L43.9460123,7.45045045 C43.9460123,5.36936937 42.2543967,3.67567568 40.1758691,3.67567568 L37.008589,3.67567568 C36.396728,3.67567568 35.9018405,4.17117117 35.9018405,4.78378378 C35.9018405,5.3963964 36.396728,5.89189189 37.008589,5.89189189 L40.1758691,5.89189189 C41.0396728,5.89189189 41.7415133,6.59459459 41.7415133,7.45945946 L41.7415133,32.6036036 C41.7415133,33.4504505 41.0396728,34.1531532 40.1758691,34.1531532 Z" id="Shape"></path>
                        <path d="M3.77014315,36.3603604 L6.93742331,36.3603604 C7.54928425,36.3603604 8.04417178,35.8648649 8.04417178,35.2522523 C8.04417178,34.6396396 7.54928425,34.1441441 6.93742331,34.1441441 L3.77014315,34.1441441 C2.90633947,34.1441441 2.20449898,33.4414414 2.20449898,32.5765766 L2.20449898,7.45045045 C2.20449898,6.58558559 2.90633947,5.88288288 3.77014315,5.88288288 L6.93742331,5.88288288 C7.54928425,5.88288288 8.04417178,5.38738739 8.04417178,4.77477477 C8.04417178,4.16216216 7.54928425,3.66666667 6.93742331,3.66666667 L3.77014315,3.66666667 C1.69161554,3.66666667 0,5.36036036 0,7.44144144 L0,32.5855856 C0,34.6666667 1.69161554,36.3603604 3.77014315,36.3603604 Z" id="Shape"></path>
                    </g>
                </g>
            </g>
        </g>
    </g>
</svg>