<?xml version="1.0" encoding="UTF-8"?>
<svg width="26px" height="15px" viewBox="0 0 26 15" version="1.1" xmlns="http://www.w3.org/2000/svg" xmlns:xlink="http://www.w3.org/1999/xlink">
    <!-- Generator: Sketch 44.1 (41455) - http://www.bohemiancoding.com/sketch -->
    <title>arrows</title>
    <desc>Created with Sketch.</desc>
    <defs></defs>
    <g id="Page-1" stroke="none" stroke-width="1" fill="none" fill-rule="evenodd">
        <g id="2.-Current-use" transform="translate(-1108.000000, -687.000000)" fill-rule="nonzero" fill="#FFFFFF">
            <g id="body" transform="translate(0.000000, 89.000000)">
                <g id="bottom-progressbar" transform="translate(0.000000, 578.000000)">
                    <g id="arrows" transform="translate(1108.000000, 20.000000)">
                        <path d="M25.7337965,12.2411677 L13.5955368,0.291017964 C13.4221123,0.12008982 13.2225965,0.034491018 12.9968982,0.034491018 C12.7712,0.034491018 12.5713193,0.12008982 12.3978035,0.291017964 L0.260547368,12.2411677 C0.0866666667,12.4123653 0,12.6088024 0,12.8311078 C0,13.0533234 0.0869403509,13.2500299 0.260547368,13.4208683 L1.56255439,14.7026946 C1.7361614,14.8736228 1.93595088,14.9590419 2.16164912,14.9590419 C2.38734737,14.9590419 2.58713684,14.8736228 2.76074386,14.7026946 L12.9968982,4.62467066 L23.2334175,14.7033234 C23.4069333,14.8742515 23.606814,14.9591317 23.8321474,14.9591317 C24.0582105,14.9591317 24.258,14.8737126 24.4315158,14.7033234 L25.7337053,13.4209581 C25.9072211,13.2501198 25.9934316,13.0533234 25.9934316,12.8311976 C25.9935228,12.6088024 25.9073123,12.4120958 25.7337965,12.2411677 Z" id="Shape"></path>
                    </g>
                </g>
            </g>
        </g>
    </g>
</svg>