<?xml version="1.0" encoding="UTF-8"?>
<svg width="28px" height="21px" viewBox="0 0 28 21" version="1.1" xmlns="http://www.w3.org/2000/svg" xmlns:xlink="http://www.w3.org/1999/xlink">
    <!-- Generator: Sketch 44.1 (41455) - http://www.bohemiancoding.com/sketch -->
    <title>yes</title>
    <desc>Created with Sketch.</desc>
    <defs></defs>
    <g id="Page-1" stroke="none" stroke-width="1" fill="none" fill-rule="evenodd">
        <g id="2.-Current-use" transform="translate(-287.000000, -525.000000)" fill-rule="nonzero" fill="#333333">
            <g id="body" transform="translate(0.000000, 89.000000)">
                <g id="question-copy" transform="translate(229.000000, 363.000000)">
                    <g id="checkbox" transform="translate(0.000000, 53.000000)">
                        <g id="yes" transform="translate(58.000000, 20.000000)">
                            <path d="M23.9393913,0.3774 C23.3751304,0.3774 22.8321739,0.5028 22.3257391,0.7506 C16.1663478,3.7488 11.9797391,9.4686 9.79573913,13.125 L5.76252174,10.3086 C5.14226087,9.8748 4.41243478,9.6456 3.6533913,9.6456 C2.47008696,9.6456 1.35495652,10.2138 0.671391304,11.1648 C-0.493043478,12.7842 -0.103478261,15.036 1.54,16.1832 L6.51547826,19.6578 C7.60930435,20.4216 8.86504348,20.8254 10.1475652,20.8254 C10.598,20.8254 11.0508696,20.775 11.4952174,20.6754 C13.2318261,20.286 14.7505217,19.1352 15.6617391,17.5182 C17.2528696,14.6922 20.6554783,9.594 25.5603478,7.206 C26.4356522,6.7806 27.0893913,6.0444 27.4022609,5.1336 C27.7157391,4.2228 27.65,3.246 27.2178261,2.3838 C26.5975652,1.146 25.3418261,0.3774 23.9393913,0.3774 Z M25.6723478,4.5552 C25.5153043,5.0106 25.1884348,5.379 24.7507826,5.592 C19.4009565,8.196 15.7591304,13.6344 14.063913,16.644 C13.4046957,17.8146 12.3206087,18.6438 11.0886087,18.9204 C9.88582609,19.1892 8.62643478,18.927 7.57034783,18.189 L2.59486957,14.715 C1.77313043,14.1414 1.57834783,13.0158 2.16026087,12.2058 C2.50234783,11.73 3.06052174,11.4456 3.65278261,11.4456 C4.0313913,11.4456 4.396,11.5602 4.70582609,11.7774 L10.3910435,15.747 L10.8853043,14.8698 C12.7856522,11.5008 16.9034783,5.3964 23.1334783,2.364 C23.3873043,2.2404 23.6575652,2.1774 23.9381739,2.1774 C24.64,2.1774 25.2687826,2.562 25.5786087,3.1806 C25.795913,3.612 25.8287826,4.1004 25.6723478,4.5552 Z" id="Shape"></path>
                        </g>
                    </g>
                </g>
            </g>
        </g>
    </g>
</svg>